<?xml version="1.0" encoding="UTF-8"?>
<!-- Generator: Adobe Illustrator 23.0.1, SVG Export Plug-In . SVG Version: 6.00 Build 0)  -->
<svg version="1.1" id="Layer_1" xmlns="http://www.w3.org/2000/svg" xmlns:xlink="http://www.w3.org/1999/xlink" x="0px" y="0px" viewBox="0 0 945.2077637 1042" style="enable-background:new 0 0 945.2077637 1042;" xml:space="preserve"><script xmlns=""/>
<style type="text/css">
	.st0{opacity:0.5;fill:#3D98D3;enable-background:new    ;}
	.st1{opacity:0.1;fill:#3D98D3;enable-background:new    ;}
	.st2{opacity:0.75;fill:#3D98D3;enable-background:new    ;}
	.st3{fill:#3D98D3;}
	.st4{fill:#FFFFFF;}
	.st5{fill:#DEE1E3;}
	.st6{fill:#0080FF;}
	.st7{fill:#2C3E50;}
</style>
<circle class="st0" cx="472.6038818" cy="882" r="160"/>
<circle class="st1" cx="472.6040344" cy="521" r="274.972229"/>
<path class="st2" d="M472.6038818,883.3886719c-48.9213867,0-96.3803711-9.5820312-141.0585938-28.4785156  c-43.152832-18.2529297-81.9082184-44.3818359-115.1889801-77.6621094  c-33.2807617-33.28125-59.4101562-72.0361328-77.6621094-115.1894531  C119.7967377,617.3808594,110.2151947,569.921875,110.2151947,521s9.581543-96.3803711,28.4790039-141.0585938  c18.2519531-43.1533203,44.3813477-81.9082031,77.6621094-115.1889648s72.0361481-59.4101562,115.1889801-77.6621094  c44.6782227-18.8974609,92.137207-28.4790039,141.0585938-28.4790039c48.921875,0,96.3808594,9.581543,141.0585938,28.4790039  c43.1533203,18.2519531,81.9082031,44.3813477,115.1894531,77.6621094  c33.2802734,33.2807617,59.4091797,72.0356445,77.6621094,115.1889648  C825.4105225,424.6196289,834.9925537,472.078125,834.9925537,521s-9.5820312,96.3808594-28.4785156,141.0585938  c-18.2529297,43.1533203-44.3818359,81.9082031-77.6621094,115.1894531  c-33.28125,33.2802734-72.0361328,59.4091797-115.1894531,77.6621094  C568.9847412,873.8066406,521.5257568,883.3886719,472.6038818,883.3886719z M472.6038818,161.3886719  c-48.5478516,0-95.6425781,9.5078125-139.9765625,28.2592773c-42.8217773,18.1123047-81.2802887,44.0419922-114.3071442,77.0683594  c-33.0263672,33.0263672-58.9560547,71.4848633-77.0678711,114.3071289  C122.500351,425.3574219,112.9925385,472.4521484,112.9925385,521s9.5078125,95.6425781,28.2597656,139.9765625  c18.1118164,42.8222656,44.0415039,81.2802734,77.0678711,114.3066406  c33.0268555,33.0273438,71.4853668,58.9560547,114.3071442,77.0683594  c44.3339844,18.7519531,91.4287109,28.2597656,139.9765625,28.2597656s95.6425781-9.5078125,139.9765625-28.2597656  c42.8222656-18.1123047,81.2802734-44.0410156,114.3066406-77.0683594  c33.0273438-33.0263672,58.9560547-71.484375,77.0683594-114.3066406C822.7073975,616.6425781,832.21521,569.5478516,832.21521,521  s-9.5078125-95.6425781-28.2597656-139.9765625c-18.1123047-42.8222656-44.0410156-81.2807617-77.0683594-114.3071289  c-33.0263672-33.0263672-71.484375-58.9560547-114.3066406-77.0683594  C568.24646,170.8964844,521.1517334,161.3886719,472.6038818,161.3886719z"/>
<g>
	<path class="st3" d="M565.6307983,459.9872131l-2.0485229-12.105011c-0.6517944-3.9108582-2.1416626-7.0767822-3.3521729-7.0767822   s-2.2347412,3.2590027-2.2347412,7.1698914v3.1659241c-0.0345459,3.9454041-3.2244263,7.1353149-7.1698608,7.1698914h-3.817749   v8.7528381h12.5705566c3.2514038,0.1545715,6.0125732-2.3559265,6.1671143-5.6073608   c0.0234375-0.4926758-0.0150757-0.9863281-0.114624-1.4694214"/>
	<path class="st3" d="M537.0443726,449.7445374h-39.6671448c-0.2215881-0.0219727-0.4452209,0.0099792-0.6517944,0.0931091   v-1.8623047c0-3.9108276-1.0242615-7.1698914-2.2347717-7.1698914s-2.7003479,3.1659241-3.3521423,7.0767822l-2.0485535,12.105011   c-0.6659546,3.1754456,1.3683777,6.2894897,4.5438232,6.9554443c0.46521,0.0975647,0.9405212,0.1383057,1.4155579,0.1213379   h12.0119019c1.1420898,0.0196228,2.2781677-0.1697083,3.3521729-0.5586853   c-0.3754272,2.0652771-2.1843262,3.5595703-4.2833252,3.5383911h-16.7608032   c-2.4029846,0.0005798-4.3514709-1.946991-4.3520203-4.3499756c-0.000061-0.2586365,0.0229187-0.5167847,0.0687256-0.7713623   l1.6760864-10.1495667c0.4254456-2.3650208-1.1469116-4.6271667-3.5119324-5.0526123   c-0.2545471-0.0457764-0.5126953-0.0687866-0.7713623-0.0687256h-83.1520996   c-1.7321777,0.0029602-3.3006592,1.0242615-4.0039978,2.6072388l-15.6434021,23.9306641   c-0.29776,0.3971558-0.2580566,0.9528198,0.0931091,1.3036194l3.0728149,3.6315002   c0.3503723,0.4616394,1.008606,0.5518188,1.4702454,0.2014771c0.0065918-0.0050049,0.0131226-0.0101013,0.0195923-0.0152588   l10.6151733-8.3804016v51.0272522c-0.0028076,2.4141846,1.9520264,4.3735962,4.366272,4.3764038   c0.0033875,0,0.0067749,0,0.0101624,0h23.6513062c2.4142151,0.0028076,4.3736267-1.9520264,4.3764343-4.366272   c0-0.0033569,0-0.0067749,0-0.0101318v-17.6919861c-0.0028076-2.4142456,1.9520569-4.3736267,4.366272-4.3764343   c0.0033875,0,0.0067749,0,0.0101624,0h58.9420471c2.4142456-0.0028076,4.3736267,1.9520569,4.3764343,4.366272   c0,0.0033875,0,0.0067749,0,0.0101624v17.691925c-0.0028076,2.4141846,1.9520264,4.3735962,4.366272,4.3764038   c0.0033875,0,0.0067749,0,0.0101624,0h23.6512756c2.4142456,0.0028076,4.3736572-1.9520264,4.3764648-4.366272   c0-0.0033569,0-0.0067749,0-0.0101318v-19.2749023h-12.5706177c-3.9453735-0.0345764-7.1352844-3.2244873-7.1698608-7.1698914   v-12.1980896c-0.0033875-2.24646,1.0699463-4.35849,2.8865967-5.6799927v14.6191101   c0.0345459,3.9454041,3.2244873,7.1353455,7.1698608,7.1698914h19.367981   c3.9453735-0.0345764,7.1353149-3.2244873,7.1698608-7.1698914v-37.2462158   c-0.0704956-3.9816589-3.281311-7.1924744-7.2630005-7.2630005"/>
	<path class="st3" d="M319.9979553,547.9165649h21.5320129c10.2390137,0,17.0900879,4.9689331,17.0900879,14.5303345   c0.0494995,6.5449219-4.2554626,12.3259277-10.5401306,14.1539307c1.5548401,1.3708496,2.7886658,3.0673218,3.613739,4.9689331   c2.1833191,4.4418945,3.613739,9.2602539,8.2062378,9.2602539c0.7185059-0.0095825,1.430603-0.1367188,2.1080017-0.3764038   l-0.9786987,9.2602539c-1.7043762,0.4002075-3.4447937,0.6271973-5.1947937,0.6775513   c-6.1735229,0-9.7120056-2.4091797-13.401001-10.6906738c-1.5809937-3.6890259-3.6889954-10.2390137-6.5499268-10.2390137   h-2.9361572v20.62854h-12.9493713V547.9165649z M332.9472656,557.3273926v12.7987671h4.6677551   c3.6889954,0,8.0556641-1.1293335,8.0556641-6.7005005c0-4.5925293-2.9361877-6.0982666-6.4746704-6.0982666H332.9472656z"/>
	<path class="st3" d="M376.0865173,547.9165649h13.099884l17.6170959,52.1737061h-13.099884l-3.2373352-9.8625488h-17.4664917   l-3.1619873,9.8625488h-11.2929993L376.0865173,547.9165649z M376.0865173,580.6662598h11.2177124l-3.5384521-10.9918213   c-0.8471069-2.9317627-1.4514465-5.9282227-1.8068848-8.9591064h-0.3011169   c-0.4279785,3.0062866-1.0823364,5.9760132-1.9574585,8.8837891L376.0865173,580.6662598z"/>
	<path class="st3" d="M407.3305054,547.9165649h13.8527527l13.702179,25.8986206   c1.129303,2.258606,2.7103271,6.1735229,3.914917,9.2602539h0.3011475   c-0.1505737-2.9361572-0.5270081-7.0769653-0.5270081-10.1636963v-24.9951782h10.6154175v52.1737061h-13.5516052   l-14.229187-25.8233643c-1.4317017-2.7541504-2.6889343-5.59552-3.7643433-8.5073853h-0.3011475   c0.2258606,2.9362183,0.6022949,6.3994141,0.6022949,9.2602539v25.0704956h-10.6154175V547.9165649z"/>
	<path class="st3" d="M451.9002075,573.7399292c0-18.8970337,9.3355408-26.6514893,23.7905884-26.6514893   c15.2079163,0,21.3061218,8.3568115,19.6498108,19.6497803l-12.0458679,1.0540161   c1.2798767-8.2815552-1.9574585-11.5941772-7.8298035-11.5941772c-5.6465149,0-10.2390137,4.1408081-10.2390137,17.6171265   c0,14.229187,4.9689331,17.8429565,10.6154175,17.8429565c5.3453674,0,9.6366882-3.3126221,8.7332458-10.1636963   l11.2929993,1.1292725c0.8281555,10.6154785-6.7757874,18.3699951-20.7038269,18.3699951   c-14.0786438,0.0752563-23.2636108-8.2815552-23.2636108-27.2537842"/>
	<polygon class="st3" points="498.5777893,547.9168701 511.4517822,547.9168701 511.4517822,567.6418457 527.3377686,567.6418457    527.3377686,547.9168701 540.211731,547.9168701 540.211731,600.1658936 527.3377686,600.1658936 527.3377686,578.0308838    511.4517822,578.0308838 511.4517822,600.1658936 498.5777893,600.1658936  "/>
	<polygon class="st3" points="545.4057617,547.9168701 579.9627686,547.9168701 579.9627686,557.5528564 558.2807617,557.5528564    558.2807617,568.770874 576.4997559,568.770874 576.4997559,578.3328857 558.2807617,578.3328857 558.2807617,590.5288696    580.7157593,590.5288696 580.7157593,600.1658936 545.4057617,600.1658936  "/>
	<path class="st3" d="M583.2001343,547.9165649h21.5319824c10.2390137,0,17.0900879,4.9689331,17.0900879,14.5303345   c0.0494995,6.5449219-4.2554932,12.3259277-10.5401611,14.1539307c1.5548706,1.3708496,2.7886963,3.0673218,3.6137695,4.9689331   c2.1833496,4.4418945,3.6137695,9.2602539,8.2062988,9.2602539c0.7185059-0.0095825,1.430542-0.1367188,2.1079712-0.3764038   l-1.0540161,9.2602539c-1.7044067,0.4002075-3.4448242,0.6271973-5.1948242,0.6775513   c-6.1735229,0-9.7119751-2.4091797-13.401001-10.6906738c-1.5809937-3.6890259-3.6890869-10.2390137-6.5499878-10.2390137   h-2.9362183v20.62854h-12.9492188v-52.1737061H583.2001343z M596.1494751,557.3273926v12.7987671h4.6677856   c3.6890869,0,8.0556641-1.1293335,8.0556641-6.7005005c0-4.5925293-2.9362183-6.0982666-6.4746094-6.0982666H596.1494751z"/>
</g>
<circle class="st0" cx="785.2390137" cy="340.5" r="160"/>
<circle class="st3" cx="785.2391357" cy="340.5001221" r="85"/>
<circle class="st0" cx="785.2390137" cy="701.5" r="160"/>
<g>
	<path class="st4" d="M698.7210693,612.7832031c0.9492188,0.8564453,1.5566406,2.0224609,1.8242188,3.5   c0.1289062,0.7705078,0.0136719,1.6445312-0.34375,2.6171875c-0.3574219,0.9746094-0.9765625,1.9492188-1.8564453,2.9257812   l-1.9169922,2.125l5.4726562,4.9365234l-3.0927734,3.4287109l-14.0732422-12.6962891l5.0097656-5.5537109   c1.4707031-1.6298828,3.0371094-2.5195312,4.6992188-2.6689453S697.5316162,611.7099609,698.7210693,612.7832031z    M693.8216553,621.5996094l1.9169922-2.125c0.4707031-0.5214844,0.6875-1.0703125,0.6513672-1.6484375   c-0.0361328-0.5791016-0.3056641-1.09375-0.8066406-1.5458984s-1.0507812-0.6689453-1.6484375-0.6513672   c-0.5986328,0.0185547-1.1259766,0.28125-1.5849609,0.7890625l-1.9160156,2.125L693.8216553,621.5996094z"/>
	<path class="st4" d="M705.6849365,613.7724609l-7.0126953-8.8759766l3.6210938-2.8632812l7.0146484,8.8769531   c0.7021484,0.8896484,1.4628906,1.4023438,2.2802734,1.5361328c0.8173828,0.1347656,1.6494141-0.1337891,2.4960938-0.8027344   c0.8486328-0.6699219,1.3085938-1.4228516,1.3808594-2.2607422c0.0722656-0.8359375-0.2431641-1.7001953-0.9453125-2.5898438   l-7.0136719-8.8769531l3.6220703-2.8623047l7.0136719,8.8759766c1.0380859,1.3144531,1.6259766,2.6894531,1.7646484,4.1289062   c0.1396484,1.4384766-0.0878906,2.7480469-0.6816406,3.9277344c-0.5927734,1.1796875-1.4404297,2.2050781-2.5419922,3.0761719   c-1.7226562,1.3613281-3.6015625,1.9736328-5.6357422,1.8378906   C709.012085,616.7646484,707.2249756,615.7216797,705.6849365,613.7724609z"/>
	<path class="st4" d="M717.0579834,591.234375l7.2353516-3.9335938c1.6914062-0.9189453,3.2636719-1.2402344,4.7148438-0.9648438   c1.4511719,0.2773438,2.5205078,1.0478516,3.2089844,2.3125c1.0224609,1.8828125,0.6152344,3.7539062-1.2216797,5.6123047   c1.2089844-0.4521484,2.3554688-0.4716797,3.4414062-0.0576172c1.0849609,0.4140625,1.9111328,1.1425781,2.4794922,2.1855469   c0.7216797,1.3291016,0.8085938,2.6494141,0.2617188,3.9609375s-1.6904297,2.4404297-3.4296875,3.3847656l-7.6386719,4.1523438   L717.0579834,591.234375z M722.7904053,592.1132812l1.9599609,3.6054688l2.6572266-1.4443359   c0.5849609-0.3173828,0.9736328-0.7236328,1.1660156-1.2177734s0.1279297-1.0371094-0.1943359-1.6298828   c-0.3222656-0.59375-0.7460938-0.9482422-1.2685547-1.0625c-0.5234375-0.1152344-1.078125-0.0126953-1.6630859,0.3037109   L722.7904053,592.1132812z M728.489624,602.5976562l3.0605469-1.6621094   c0.5537109-0.3017578,0.921875-0.7167969,1.1054688-1.2460938c0.1826172-0.5302734,0.1152344-1.0878906-0.203125-1.6728516   c-0.3173828-0.5849609-0.7451172-0.9570312-1.2822266-1.1162109c-0.5371094-0.1582031-1.0830078-0.0878906-1.6357422,0.2128906   l-3.1074219,1.6894531L728.489624,602.5976562z"/>
	<path class="st4" d="M736.043335,581.7089844l4.3300781-1.6035156l5.3632812,14.4824219l5.3925781-1.9970703l1.21875,3.2919922   l-9.7226562,3.6005859L736.043335,581.7089844z"/>
	<path class="st4" d="M755.77771,595.0146484l-4.6738281-18.3691406l4.4746094-1.1376953l4.6738281,18.3681641   L755.77771,595.0146484z"/>
	<path class="st4" d="M766.0179443,589.9082031c-2.0761719-1.6015625-3.2734375-3.7988281-3.5917969-6.5878906   c-0.3183594-2.7900391,0.3535156-5.1992188,2.0146484-7.2275391s3.8427734-3.1972656,6.5429688-3.5048828   c2.0927734-0.2392578,4.015625,0.1025391,5.7695312,1.0253906c1.7539062,0.9238281,3.0654297,2.3320312,3.9335938,4.2246094   l-5.4716797,0.625c-0.8730469-1.2949219-2.0966797-1.8525391-3.6699219-1.6728516   c-1.5742188,0.1796875-2.7558594,0.8125-3.546875,1.8994141s-1.0927734,2.453125-0.9042969,4.0976562   c0.1875,1.6464844,0.7890625,2.9091797,1.8046875,3.7890625c1.0146484,0.8808594,2.3095703,1.2304688,3.8828125,1.0507812   c1.5742188-0.1796875,2.640625-0.9980469,3.1992188-2.4570312l5.4716797-0.625   c-0.4189453,2.0410156-1.3789062,3.7089844-2.8798828,5.0029297c-1.5009766,1.2949219-3.296875,2.0615234-5.3896484,2.2998047   C770.4827881,592.15625,768.0941162,591.5097656,766.0179443,589.9082031z"/>
	<path class="st4" d="M796.3128662,588.7646484c-1.5771484-2.0957031-2.1474609-4.53125-1.7138672-7.3046875   c0.4335938-2.7744141,1.7207031-4.9189453,3.8623047-6.4335938c2.1396484-1.5146484,4.5527344-2.0615234,7.2382812-1.6425781   c2.0800781,0.3251953,3.84375,1.1669922,5.2900391,2.5214844c1.4453125,1.3564453,2.3359375,3.0615234,2.6699219,5.1181641   l-5.4414062-0.8505859c-0.4970703-1.4804688-1.5283203-2.3427734-3.0927734-2.5878906   c-1.5664062-0.2451172-2.8740234,0.0517578-3.9248047,0.8896484c-1.0517578,0.8369141-1.7041016,2.0742188-1.9599609,3.7109375   c-0.2558594,1.6357422-0.0117188,3.0136719,0.734375,4.1318359c0.7441406,1.1181641,1.8994141,1.7998047,3.4648438,2.0439453   c1.5644531,0.2460938,2.8105469-0.2617188,3.7363281-1.5195312l5.4414062,0.8505859   c-0.9462891,1.8564453-2.3144531,3.2089844-4.1054688,4.0585938s-3.7265625,1.1123047-5.8066406,0.7861328   C800.0189209,592.1181641,797.8880615,590.859375,796.3128662,588.7646484z"/>
	<path class="st4" d="M820.4124756,576.8164062l4.3974609,1.40625l-4.7060547,14.7089844l5.4765625,1.7529297l-1.0693359,3.3427734   l-9.875-3.1591797L820.4124756,576.8164062z"/>
	<path class="st4" d="M829.7698975,597.3349609c-0.8554688-2.4853516-0.6542969-4.9814453,0.6074219-7.4912109   c1.2607422-2.5087891,3.1416016-4.15625,5.6435547-4.9453125c2.5-0.7871094,4.9697266-0.5693359,7.40625,0.6552734   c2.4365234,1.2255859,4.0771484,3.0722656,4.9208984,5.5400391c0.8447266,2.4697266,0.6357422,4.9589844-0.625,7.4677734   s-3.140625,4.1630859-5.6367188,4.9628906c-2.4980469,0.7998047-4.9609375,0.5898438-7.3886719-0.6298828   C832.2679443,601.6728516,830.6263428,599.8203125,829.7698975,597.3349609z M840.5247803,599.3857422   c1.2568359-0.4755859,2.2568359-1.4541016,3-2.9345703c0.7441406-1.4785156,0.9326172-2.8652344,0.5644531-4.1582031   c-0.3681641-1.2919922-1.2314453-2.2802734-2.5898438-2.9628906c-1.359375-0.6835938-2.6669922-0.7871094-3.9238281-0.3105469   s-2.2568359,1.4550781-3.0009766,2.9335938c-0.7441406,1.4804688-0.9316406,2.8662109-0.5634766,4.1591797   c0.3671875,1.2929688,1.2304688,2.2802734,2.5898438,2.9638672   C837.9603271,599.7587891,839.2679443,599.8623047,840.5247803,599.3857422z"/>
	<path class="st4" d="M850.199585,602.5l6.8173828-9.0283203l3.6845703,2.7822266l-6.8173828,9.0283203   c-0.6826172,0.9052734-0.9863281,1.7705078-0.9101562,2.5947266s0.5458984,1.5625,1.4082031,2.2128906   c0.8623047,0.6513672,1.7060547,0.90625,2.5351562,0.7636719c0.828125-0.140625,1.5839844-0.6630859,2.2675781-1.5683594   l6.8173828-9.0292969l3.6845703,2.7822266l-6.8173828,9.0283203c-1.0087891,1.3359375-2.1914062,2.2539062-3.5478516,2.7509766   c-1.3574219,0.4980469-2.6816406,0.6083984-3.9736328,0.3330078c-1.2910156-0.2753906-2.4970703-0.8369141-3.6171875-1.6826172   c-1.7529297-1.3242188-2.8203125-2.9873047-3.203125-4.9892578C848.1448975,606.4755859,848.7034912,604.4824219,850.199585,602.5z   "/>
	<path class="st4" d="M879.46521,612.6923828c2.0517578,2.2216797,3.0917969,4.6416016,3.1210938,7.2607422   c0.0302734,2.6191406-0.9833984,4.8779297-3.0390625,6.7763672c-2.0566406,1.8994141-4.3925781,2.7333984-7.0078125,2.5019531   c-2.6142578-0.2314453-4.9472656-1.4580078-6.9990234-3.6796875l-4.5244141-4.8994141l13.9238281-12.859375L879.46521,612.6923828z    M866.7269287,621.6630859l1.3916016,1.5068359c1.1962891,1.2958984,2.5341797,1.9472656,4.0117188,1.9560547   c1.4765625,0.0068359,2.8837891-0.6044922,4.2197266-1.8388672c1.3349609-1.2333984,2.0566406-2.5859375,2.1679688-4.0595703   c0.1083984-1.4736328-0.4355469-2.8583984-1.6318359-4.1542969l-1.3916016-1.5068359L866.7269287,621.6630859z"/>
</g>
<circle class="st3" cx="785.2389526" cy="701.5001221" r="85"/>
<g>
	<path class="st4" d="M698.7210693,251.2276154c0.9492188,0.8564453,1.5566406,2.0224609,1.8242188,3.5   c0.1289062,0.7705078,0.0136719,1.6445465-0.34375,2.6172028c-0.3574219,0.9746094-0.9765625,1.9492188-1.8564453,2.9257812   l-1.9169922,2.125l5.4726562,4.9365234l-3.0927734,3.4287109l-14.0732422-12.6962891l5.0097656-5.5537262   c1.4707031-1.6298828,3.0371094-2.5195312,4.6992188-2.6689453S697.5316162,250.1543732,698.7210693,251.2276154z    M693.8216553,260.0440369l1.9169922-2.125c0.4707031-0.5214844,0.6875-1.0703125,0.6513672-1.6484375   c-0.0361328-0.5791168-0.3056641-1.0937653-0.8066406-1.5459137s-1.0507812-0.6689453-1.6484375-0.6513672   c-0.5986328,0.0185547-1.1259766,0.28125-1.5849609,0.7890625l-1.9160156,2.1250153L693.8216553,260.0440369z"/>
	<path class="st4" d="M705.6849365,252.2168732l-7.0126953-8.8759766l3.6210938-2.8632812l7.0146484,8.8769531   c0.7021484,0.8896484,1.4628906,1.4023438,2.2802734,1.5361328c0.8173828,0.1347656,1.6494141-0.1337891,2.4960938-0.8027344   c0.8486328-0.6699219,1.3085938-1.4228516,1.3808594-2.2607422c0.0722656-0.8359375-0.2431641-1.7001953-0.9453125-2.5898438   l-7.0136719-8.8769531l3.6220703-2.8623047l7.0136719,8.8759766c1.0380859,1.3144531,1.6259766,2.6894531,1.7646484,4.1289062   c0.1396484,1.4384766-0.0878906,2.7480469-0.6816406,3.9277344c-0.5927734,1.1796875-1.4404297,2.2050781-2.5419922,3.0761719   c-1.7226562,1.3613281-3.6015625,1.9736328-5.6357422,1.8378906   C709.012085,255.2090607,707.2249756,254.1660919,705.6849365,252.2168732z"/>
	<path class="st4" d="M717.0579834,229.6787872l7.2353516-3.9335938c1.6914062-0.9189453,3.2636719-1.2402344,4.7148438-0.9648438   c1.4511719,0.2773438,2.5205078,1.0478516,3.2089844,2.3125c1.0224609,1.8828125,0.6152344,3.7539062-1.2216797,5.6123047   c1.2089844-0.4521484,2.3554688-0.4716797,3.4414062-0.0576172c1.0849609,0.4140625,1.9111328,1.1425781,2.4794922,2.1855469   c0.7216797,1.3291016,0.8085938,2.6494141,0.2617188,3.9609375s-1.6904297,2.4404297-3.4296875,3.3847656l-7.6386719,4.1523438   L717.0579834,229.6787872z M722.7904053,230.5576935l1.9599609,3.6054688l2.6572266-1.4443359   c0.5849609-0.3173828,0.9736328-0.7236328,1.1660156-1.2177734s0.1279297-1.0371094-0.1943359-1.6298828   c-0.3222656-0.59375-0.7460938-0.9482422-1.2685547-1.0625c-0.5234375-0.1152344-1.078125-0.0126953-1.6630859,0.3037109   L722.7904053,230.5576935z M728.489624,241.0420685l3.0605469-1.6621094   c0.5537109-0.3017578,0.921875-0.7167969,1.1054688-1.2460938c0.1826172-0.5302734,0.1152344-1.0878906-0.203125-1.6728516   c-0.3173828-0.5849609-0.7451172-0.9570312-1.2822266-1.1162109c-0.5371094-0.1582031-1.0830078-0.0878906-1.6357422,0.2128906   l-3.1074219,1.6894531L728.489624,241.0420685z"/>
	<path class="st4" d="M736.043335,220.1533966l4.3300781-1.6035156l5.3632812,14.4824219l5.3925781-1.9970703l1.21875,3.2919922   l-9.7226562,3.6005859L736.043335,220.1533966z"/>
	<path class="st4" d="M755.77771,233.4590607l-4.6738281-18.3691406l4.4746094-1.1376953l4.6738281,18.3681641   L755.77771,233.4590607z"/>
	<path class="st4" d="M766.0179443,228.3526154c-2.0761719-1.6015625-3.2734375-3.7988281-3.5917969-6.5878906   c-0.3183594-2.7900391,0.3535156-5.1992188,2.0146484-7.2275391s3.8427734-3.1972656,6.5429688-3.5048828   c2.0927734-0.2392578,4.015625,0.1025391,5.7695312,1.0253906c1.7539062,0.9238281,3.0654297,2.3320312,3.9335938,4.2246094   l-5.4716797,0.625c-0.8730469-1.2949219-2.0966797-1.8525391-3.6699219-1.6728516   c-1.5742188,0.1796875-2.7558594,0.8125-3.546875,1.8994141s-1.0927734,2.453125-0.9042969,4.0976562   c0.1875,1.6464844,0.7890625,2.9091797,1.8046875,3.7890625c1.0146484,0.8808594,2.3095703,1.2304688,3.8828125,1.0507812   c1.5742188-0.1796875,2.640625-0.9980469,3.1992188-2.4570312l5.4716797-0.625   c-0.4189453,2.0410156-1.3789062,3.7089844-2.8798828,5.0029297c-1.5009766,1.2949219-3.296875,2.0615234-5.3896484,2.2998047   C770.4827881,230.6006622,768.0941162,229.9541779,766.0179443,228.3526154z"/>
	<path class="st4" d="M796.3128662,227.2090607c-1.5771484-2.0957031-2.1474609-4.53125-1.7138672-7.3046875   c0.4335938-2.7744141,1.7207031-4.9189453,3.8623047-6.4335938c2.1396484-1.5146484,4.5527344-2.0615234,7.2382812-1.6425781   c2.0800781,0.3251953,3.84375,1.1669922,5.2900391,2.5214844c1.4453125,1.3564453,2.3359375,3.0615234,2.6699219,5.1181641   l-5.4414062-0.8505859c-0.4970703-1.4804688-1.5283203-2.3427734-3.0927734-2.5878906   c-1.5664062-0.2451172-2.8740234,0.0517578-3.9248047,0.8896484c-1.0517578,0.8369141-1.7041016,2.0742188-1.9599609,3.7109375   c-0.2558594,1.6357422-0.0117188,3.0136719,0.734375,4.1318359c0.7441406,1.1181641,1.8994141,1.7998047,3.4648438,2.0439453   c1.5644531,0.2460938,2.8105469-0.2617188,3.7363281-1.5195312l5.4414062,0.8505859   c-0.9462891,1.8564453-2.3144531,3.2089844-4.1054688,4.0585938s-3.7265625,1.1123047-5.8066406,0.7861328   C800.0189209,230.5625763,797.8880615,229.3037872,796.3128662,227.2090607z"/>
	<path class="st4" d="M820.4124756,215.2608185l4.3974609,1.40625l-4.7060547,14.7089844l5.4765625,1.7529297l-1.0693359,3.3427734   l-9.875-3.1591797L820.4124756,215.2608185z"/>
	<path class="st4" d="M829.7698975,235.7793732c-0.8554688-2.4853516-0.6542969-4.9814453,0.6074219-7.4912109   c1.2607422-2.5087891,3.1416016-4.15625,5.6435547-4.9453125c2.5-0.7871094,4.9697266-0.5693359,7.40625,0.6552734   c2.4365234,1.2255859,4.0771484,3.0722656,4.9208984,5.5400391c0.8447266,2.4697266,0.6357422,4.9589844-0.625,7.4677734   s-3.140625,4.1630859-5.6367188,4.9628906c-2.4980469,0.7998047-4.9609375,0.5898438-7.3886719-0.6298828   C832.2679443,240.1172638,830.6263428,238.2647247,829.7698975,235.7793732z M840.5247803,237.8301544   c1.2568359-0.4755859,2.2568359-1.4541016,3-2.9345703c0.7441406-1.4785156,0.9326172-2.8652344,0.5644531-4.1582031   c-0.3681641-1.2919922-1.2314453-2.2802734-2.5898438-2.9628906c-1.359375-0.6835938-2.6669922-0.7871094-3.9238281-0.3105469   s-2.2568359,1.4550781-3.0009766,2.9335938c-0.7441406,1.4804688-0.9316406,2.8662109-0.5634766,4.1591797   c0.3671875,1.2929688,1.2304688,2.2802734,2.5898438,2.9638672   C837.9603271,238.2032013,839.2679443,238.3067169,840.5247803,237.8301544z"/>
	<path class="st4" d="M850.199585,240.9444122l6.8173828-9.0283203l3.6845703,2.7822266l-6.8173828,9.0283203   c-0.6826172,0.9052734-0.9863281,1.7705078-0.9101562,2.5947266s0.5458984,1.5625,1.4082031,2.2128906   c0.8623047,0.6513672,1.7060547,0.90625,2.5351562,0.7636719c0.828125-0.140625,1.5839844-0.6630859,2.2675781-1.5683594   l6.8173828-9.0292969l3.6845703,2.7822266l-6.8173828,9.0283203c-1.0087891,1.3359375-2.1914062,2.2539062-3.5478516,2.7509766   c-1.3574219,0.4980469-2.6816406,0.6083984-3.9736328,0.3330078c-1.2910156-0.2753906-2.4970703-0.8369141-3.6171875-1.6826172   c-1.7529297-1.3242188-2.8203125-2.9873047-3.203125-4.9892578   C848.1448975,244.9199982,848.7034912,242.9268341,850.199585,240.9444122z"/>
	<path class="st4" d="M879.46521,251.136795c2.0517578,2.2216797,3.0917969,4.6416016,3.1210938,7.2607574   c0.0302734,2.6191406-0.9833984,4.8779297-3.0390625,6.7763672c-2.0566406,1.8994141-4.3925781,2.7333984-7.0078125,2.5019531   c-2.6142578-0.2314453-4.9472656-1.4580078-6.9990234-3.6796875l-4.5244141-4.8994141l13.9238281-12.8593903L879.46521,251.136795z    M866.7269287,260.1075134l1.3916016,1.5068359c1.1962891,1.2958984,2.5341797,1.9472656,4.0117188,1.9560547   c1.4765625,0.0068359,2.8837891-0.6044922,4.2197266-1.8388672c1.3349609-1.2333984,2.0566406-2.5859375,2.1679688-4.0595703   c0.1083984-1.4736328-0.4355469-2.8584137-1.6318359-4.1543121l-1.3916016-1.5068359L866.7269287,260.1075134z"/>
</g>
<circle class="st3" cx="472.6037292" cy="882" r="85.0000076"/>
<circle class="st0" cx="159.968689" cy="701.5" r="160"/>
<g>
	<path class="st4" d="M66.7957611,619.7998047c1.0136719,0.7792969,1.7114258,1.8945312,2.09375,3.3466797   c0.1889648,0.7587891,0.1430664,1.6376953-0.1367188,2.6367188c-0.2802734,1-0.8212891,2.0205078-1.6225586,3.0605469   l-1.7441406,2.2695312l5.8432617,4.4921875l-2.8139648,3.6611328l-15.0258789-11.5527344l4.559082-5.9296875   c1.3378906-1.7412109,2.8295898-2.7509766,4.4750977-3.0302734   C64.0687103,618.4755859,65.5262299,618.8232422,66.7957611,619.7998047z M62.6038666,628.9736328l1.7441406-2.2685547   c0.4282227-0.5566406,0.6015625-1.1210938,0.5200195-1.6953125c-0.0810547-0.5732422-0.3896484-1.0654297-0.9248047-1.4765625   c-0.5351562-0.4121094-1.1000977-0.5859375-1.6948242-0.5195312c-0.5952148,0.0644531-1.1005859,0.3671875-1.5175781,0.9101562   l-1.7441406,2.2695312L62.6038666,628.9736328z"/>
	<path class="st4" d="M77.4920502,617.2294922l5.046875,5.3720703l-3.3657227,3.1611328l-12.9770508-13.8144531l5.4516602-5.1210938   c1.6000977-1.5029297,3.2348633-2.2607422,4.9033203-2.2724609s3.0512695,0.5664062,4.1484375,1.734375   c0.7519531,0.8007812,1.2416992,1.8085938,1.4711914,3.0253906s-0.059082,2.5009766-0.8652344,3.8505859l8.671875,2.4492188   l-3.9360352,3.6962891l-8.1557617-2.4511719L77.4920502,617.2294922z M71.9647064,611.3457031l3.1240234,3.3242188   l2.0859375-1.9580078c0.512207-0.4804688,0.7739258-1.0107422,0.7851562-1.5898438   c0.012207-0.5791016-0.2128906-1.1142578-0.675293-1.6064453s-0.9926758-0.7539062-1.5893555-0.7851562   c-0.5976562-0.03125-1.1459961,0.1865234-1.644043,0.6552734L71.9647064,611.3457031z"/>
	<path class="st4" d="M93.1380463,613.4570312l-11.1269531-15.34375l3.737793-2.7109375l11.1269531,15.34375L93.1380463,613.4570312   z"/>
	<path class="st4" d="M104.8636322,605.6787109L89.927597,592.2119141l4.3208008-2.3398438l11.0092773,10.4658203   l-2.7460938-14.9394531l4.3208008-2.3398438l3.1123047,19.8691406L104.8636322,605.6787109z"/>
	<path class="st4" d="M129.2498627,595.2421875l-2.0078125-2.6884766l-6.4536133,2.1552734l0.0097656,3.3544922   l-4.6606445,1.5556641l0.2294922-20.1152344l5.3271484-1.7783203l12.2426758,15.9521484L129.2498627,595.2421875z    M120.778183,591.0117188l4.2514648-1.4199219l-4.2631836-5.6923828L120.778183,591.0117188z"/>
	<path class="st4" d="M132.4842377,578.34375l-0.5581055-3.4648438l14.7685547-2.375l0.5571289,3.4648438l-5.1181641,0.8232422   l2.453125,15.2480469l-4.5585938,0.7333984l-2.4526367-15.2490234L132.4842377,578.34375z"/>
	<path class="st4" d="M163.9930267,571.9394531l0.043457,3.5097656l-6.8579102,0.0839844l0.050293,4.0771484l6.0473633-0.0732422   l0.0424805,3.5087891l-6.0473633,0.0732422l0.0537109,4.4013672l6.8574219-0.0839844l0.0429688,3.5097656l-11.4741211,0.140625   l-0.2319336-19.0068359L163.9930267,571.9394531z"/>
	<path class="st4" d="M179.8489838,590.0244141c-1.4042969-2.2138672-1.7797852-4.6875-1.1259766-7.4179688   c0.652832-2.7314453,2.1064453-4.7666016,4.3618164-6.1054688c2.253418-1.3398438,4.703125-1.6923828,7.3461914-1.0605469   c2.0483398,0.4902344,3.7387695,1.46875,5.0727539,2.9355469c1.3325195,1.4667969,2.0844727,3.2382812,2.2539062,5.3144531   l-5.3564453-1.2822266c-0.378418-1.515625-1.3369141-2.4570312-2.8779297-2.8261719   c-1.5400391-0.3671875-2.8681641-0.1767578-3.9824219,0.5742188c-1.1142578,0.7519531-1.8637695,1.9326172-2.2495117,3.5429688   c-0.3852539,1.6113281-0.2509766,3.0029297,0.402832,4.1777344c0.6533203,1.1738281,1.7504883,1.9453125,3.2919922,2.3144531   c1.5395508,0.3681641,2.8217773-0.0371094,3.8442383-1.21875l5.3569336,1.28125   c-1.0908203,1.7753906-2.5634766,3.0146484-4.4155273,3.7207031c-1.8525391,0.703125-3.8032227,0.8105469-5.8510742,0.3203125   C183.2767181,593.6621094,181.2532806,592.2392578,179.8489838,590.0244141z"/>
	<path class="st4" d="M204.8035736,580.0117188l4.2758789,1.7421875l-5.8276367,14.3027344l5.3256836,2.1699219   l-1.3251953,3.2509766l-9.6005859-3.9121094L204.8035736,580.0117188z"/>
	<path class="st4" d="M212.5691986,601.1953125c-0.6630859-2.5429688-0.2700195-5.0175781,1.1796875-7.421875   c1.4492188-2.40625,3.4506836-3.9052734,6.0048828-4.5c2.5537109-0.5927734,4.9990234-0.1855469,7.3344727,1.2216797   c2.3359375,1.4082031,3.8295898,3.3759766,4.4824219,5.9013672c0.6523438,2.5263672,0.2543945,4.9921875-1.1953125,7.3964844   c-1.4492188,2.40625-3.449707,3.9111328-6.0009766,4.5175781c-2.5512695,0.6054688-4.9907227,0.2070312-7.3183594-1.1953125   C214.7283783,605.7119141,213.2322845,603.7382812,212.5691986,601.1953125z M223.1351166,604.0644531   c1.2890625-0.3789062,2.3618164-1.2773438,3.2163086-2.6962891c0.8544922-1.4179688,1.1484375-2.7851562,0.8813477-4.1025391   c-0.2675781-1.3173828-1.0527344-2.3681641-2.3554688-3.1542969c-1.3027344-0.7851562-2.5991211-0.9873047-3.8881836-0.609375   c-1.2900391,0.3789062-2.3623047,1.2773438-3.2172852,2.6953125c-0.8544922,1.4199219-1.1484375,2.7871094-0.8808594,4.1035156   c0.2675781,1.3173828,1.0527344,2.3681641,2.3549805,3.1533203   C220.5496674,604.2402344,221.8450775,604.4423828,223.1351166,604.0644531z"/>
	<path class="st4" d="M232.5179291,607.9042969l7.5092773-8.4609375l3.453125,3.0644531l-7.5097656,8.4619141   c-0.7524414,0.8476562-1.1235352,1.6865234-1.1123047,2.5146484s0.4204102,1.6005859,1.2285156,2.3164062   c0.8071289,0.7167969,1.6298828,1.0390625,2.4672852,0.9628906c0.8359375-0.0751953,1.6313477-0.5371094,2.3842773-1.3847656   l7.5097656-8.4609375l3.4536133,3.0644531l-7.5102539,8.4609375c-1.1113281,1.2519531-2.362793,2.0722656-3.7548828,2.4609375   c-1.3925781,0.3886719-2.7211914,0.3955078-3.9868164,0.0185547c-1.265625-0.3779297-2.4233398-1.0322266-3.4736328-1.9638672   c-1.6420898-1.4580078-2.5751953-3.2011719-2.7978516-5.2275391S230.868515,609.7626953,232.5179291,607.9042969z"/>
	<path class="st4" d="M260.8734131,620.3730469c1.8696289,2.3769531,2.715332,4.8720703,2.5375977,7.4853516   c-0.1777344,2.6123047-1.3671875,4.7841797-3.5668945,6.5146484c-2.2001953,1.7304688-4.5942535,2.3769531-7.1826324,1.9384766   c-2.5883789-0.4365234-4.8168945-1.8447266-6.6860352-4.2216797l-4.1235352-5.2421875l14.8994293-11.7158203   L260.8734131,620.3730469z M247.465683,628.3066406l1.2680664,1.6132812   c1.0908203,1.3867188,2.3720703,2.1425781,3.8442383,2.2675781c1.4716797,0.125,2.9223633-0.375,4.3510895-1.4990234   c1.4291992-1.1240234,2.2568359-2.4160156,2.4824219-3.8759766c0.2260742-1.4599609-0.2070312-2.8828125-1.296875-4.2695312   l-1.2685547-1.6132812L247.465683,628.3066406z"/>
</g>
<circle class="st3" cx="159.9686279" cy="701.5" r="85"/>
<circle class="st0" cx="159.968689" cy="340.5" r="160"/>
<g>
	<path class="st4" d="M66.7708588,258.8339844c1.0136719,0.7783203,1.7109375,1.8935547,2.09375,3.3447266   c0.1894531,0.7587891,0.1445312,1.6381836-0.1357422,2.6367188c-0.2802734,1-0.8212891,2.0209961-1.6210938,3.0625   l-1.7431641,2.2695312l5.84375,4.4902344l-2.8125,3.6616211L53.3665619,266.75l4.5566406-5.9301758   c1.3378906-1.7407227,2.8300781-2.7514648,4.4746094-3.0307617S65.5013275,257.8574219,66.7708588,258.8339844z    M62.5814056,268.0083008l1.7431641-2.269043c0.4287109-0.5566406,0.6005859-1.1210938,0.5185547-1.6948242   c-0.0800781-0.5737305-0.3886719-1.0664062-0.9238281-1.4770508c-0.5351562-0.4111328-1.1005859-0.5839844-1.6953125-0.5195312   c-0.5957031,0.0649414-1.1005859,0.3681641-1.5175781,0.9111328l-1.7441406,2.2685547L62.5814056,268.0083008z"/>
	<path class="st4" d="M77.469101,256.2519531l5.0478516,5.3710938l-3.3632812,3.1630859l-12.9824219-13.8105469l5.4492188-5.1230469   c1.5996094-1.5029297,3.2333984-2.2612305,4.9023438-2.2744141c1.6679688-0.0117188,3.0507812,0.5654297,4.1484375,1.7324219   c0.7519531,0.8007812,1.2431641,1.809082,1.4726562,3.0258789c0.2304688,1.2172852-0.0576172,2.5004883-0.8632812,3.8500977   l8.6728516,2.4453125l-3.9345703,3.6992188l-8.15625-2.4482422L77.469101,256.2519531z M71.9388275,250.3701172l3.1259766,3.324707   l2.0849609-1.9604492c0.5117188-0.4804688,0.7734375-1.0102539,0.7851562-1.5888672   c0.0107422-0.5800781-0.2148438-1.1147461-0.6777344-1.6064453c-0.4609375-0.4921875-0.9921875-0.7529297-1.5898438-0.7851562   c-0.5976562-0.0302734-1.1445312,0.1884766-1.6425781,0.65625L71.9388275,250.3701172z"/>
	<path class="st4" d="M93.1009369,252.4833984L81.9720306,237.140625l3.7382812-2.7109375l11.1289062,15.34375   L93.1009369,252.4833984z"/>
	<path class="st4" d="M104.8235931,244.7109375l-14.9160156-13.4897461l4.3242188-2.3325195l10.9921875,10.4824219   l-2.7226562-14.9428711l4.3261719-2.3339844l3.0800781,19.8745117L104.8235931,244.7109375z"/>
	<path class="st4" d="M129.2171478,234.3120117l-2.0048828-2.6904297l-6.4560547,2.1503906l0.0068359,3.3554688   l-4.6621094,1.5532227l0.2441406-20.1162109l5.328125-1.7749023L133.9046478,232.75L129.2171478,234.3120117z    M120.7493744,230.0742188l4.2519531-1.4160156l-4.2597656-5.6953125L120.7493744,230.0742188z"/>
	<path class="st4" d="M132.4876556,217.4023438l-0.5625-3.4648438l14.7636719-2.3994141l0.5634766,3.4648438l-5.1171875,0.8320312   l2.4775391,15.2431641l-4.5566406,0.7407227l-2.4785156-15.2436523L132.4876556,217.4023438z"/>
	<path class="st4" d="M163.9554291,210.9267578l0.0537109,3.5097656l-6.8574219,0.1044922l0.0615234,4.0761719l6.046875-0.0917969   l0.0537109,3.5097656l-6.046875,0.0917969l0.0664062,4.4003906l6.8574219-0.1044922l0.0527344,3.5097656l-11.4736328,0.1743164   l-0.2880859-19.0058594L163.9554291,210.9267578z"/>
	<path class="st4" d="M179.8470306,228.9697266c-1.40625-2.2133789-1.7822266-4.6860352-1.1308594-7.4169922   c0.6523438-2.7319336,2.1044922-4.7675781,4.359375-6.1083984c2.2519531-1.3398438,4.7011719-1.6953125,7.3457031-1.0639648   c2.0488281,0.4882812,3.7402344,1.465332,5.0742188,2.9316406s2.0859375,3.2368164,2.2568359,5.3129883l-5.3574219-1.2783203   c-0.3789062-1.515625-1.3388672-2.4570312-2.8789062-2.8251953c-1.5400391-0.3671875-2.8681641-0.1748047-3.9814453,0.5766602   c-1.1152344,0.7524414-1.8632812,1.934082-2.2480469,3.5444336c-0.3847656,1.6113281-0.25,3.003418,0.4052734,4.1777344   c0.6533203,1.1728516,1.7509766,1.9443359,3.2919922,2.3120117s2.8222656-0.0385742,3.84375-1.2202148l5.359375,1.2783203   c-1.0908203,1.7758789-2.5625,3.015625-4.4140625,3.7216797c-1.8525391,0.7050781-3.8027344,0.8129883-5.8515625,0.3251953   C183.2767181,232.6054688,181.2532806,231.1831055,179.8470306,228.9697266z"/>
	<path class="st4" d="M204.7923431,218.9570312l4.2714844,1.7485352l-5.8486328,14.293457l5.3232422,2.1787109l-1.3300781,3.2480469   l-9.5957031-3.9267578L204.7923431,218.9570312z"/>
	<path class="st4" d="M212.5208588,240.1552734c-0.6621094-2.5439453-0.2666016-5.0175781,1.1845703-7.421875   c1.4501953-2.4033203,3.453125-3.9013672,6.0078125-4.4936523c2.5537109-0.5922852,4.9990234-0.184082,7.3349609,1.2246094   c2.3339844,1.409668,3.8261719,3.378418,4.4775391,5.9042969c0.6503906,2.5268555,0.2509766,4.9926758-1.2001953,7.3964844   c-1.4511719,2.4042969-3.453125,3.9077148-6.0039062,4.5126953c-2.5507812,0.6044922-4.9902344,0.2041016-7.3173828-1.199707   C214.6771088,244.6728516,213.1829681,242.6992188,212.5208588,240.1552734z M223.0853119,243.03125   c1.2890625-0.3779297,2.3623047-1.2758789,3.21875-2.6938477c0.8554688-1.4174805,1.1484375-2.784668,0.8828125-4.1025391   c-0.2666016-1.3173828-1.0507812-2.3691406-2.3535156-3.1547852c-1.3027344-0.7861328-2.5976562-0.9902344-3.8876953-0.6123047   s-2.3623047,1.2763672-3.2177734,2.6933594c-0.8564453,1.4179688-1.1503906,2.7851562-0.8847656,4.1035156   c0.2675781,1.315918,1.0507812,2.3676758,2.3535156,3.1542969   C220.4993744,243.2050781,221.7952728,243.4082031,223.0853119,243.03125z"/>
	<path class="st4" d="M232.4788666,246.8759766l7.5048828-8.4643555l3.4550781,3.0625l-7.5058594,8.465332   c-0.7519531,0.8476562-1.1230469,1.6870117-1.1113281,2.5146484c0.0117188,0.8291016,0.421875,1.6005859,1.2304688,2.3168945   c0.8076172,0.7172852,1.6298828,1.0366211,2.4667969,0.9614258s1.6318359-0.5375977,2.3847656-1.3867188l7.5058594-8.4648438   l3.453125,3.0629883l-7.5039062,8.4643555c-1.1113281,1.253418-2.3632812,2.074707-3.7539062,2.4638672   c-1.3925781,0.3896484-2.7216797,0.3969727-3.9873047,0.0195312c-1.2666016-0.3759766-2.4238281-1.0302734-3.4746094-1.9619141   c-1.6435547-1.4570312-2.5771484-3.1987305-2.7998047-5.2255859   C230.118515,250.6777344,230.8314056,248.734375,232.4788666,246.8759766z"/>
	<path class="st4" d="M260.8597412,259.3544922c1.8701172,2.3764648,2.7158203,4.8720703,2.5380859,7.4853516   c-0.1767578,2.612793-1.3652344,4.7841797-3.5644531,6.5146484c-2.2001953,1.7304688-4.5947418,2.3779297-7.1826324,1.9404297   c-2.5888672-0.4370117-4.8173828-1.8442383-6.6875-4.2207031l-4.1240234-5.2412109l14.8964996-11.7197266L260.8597412,259.3544922z    M247.4524994,267.2919922l1.2695312,1.6123047c1.0898438,1.3857422,2.3710938,2.1416016,3.84375,2.2666016   c1.4726562,0.1230469,2.921875-0.3754883,4.3515778-1.5c1.4287109-1.1240234,2.2558594-2.4165039,2.4824219-3.8759766   c0.2246094-1.4599609-0.2070312-2.8837891-1.2988281-4.2700195l-1.2685547-1.6123047L247.4524994,267.2919922z"/>
</g>
<circle class="st3" cx="159.9687653" cy="340.4998779" r="85"/>
<circle class="st0" cx="472.6038818" cy="160" r="160"/>
<g>
	<path class="st4" d="M386.1536865,71.3022461c0.9477539,0.8574219,1.5541992,2.0244141,1.8198242,3.5019531   c0.1279297,0.7714844,0.0126953,1.644043-0.3461914,2.6171875c-0.3588867,0.9741211-0.9790039,1.9487305-1.8603516,2.9228516   l-1.9194336,2.1230469l5.4672852,4.9438477l-3.0966797,3.4243164l-14.0585938-12.7128906l5.0161133-5.546875   c1.4726562-1.6289062,3.0400391-2.5170898,4.7021484-2.6645508C383.539917,69.7641602,384.96521,70.2275391,386.1536865,71.3022461   z M381.2440186,80.112793l1.9194336-2.1225586c0.4707031-0.5209961,0.6889648-1.0698242,0.6533203-1.6484375   c-0.0356445-0.5776367-0.3037109-1.0932617-0.8041992-1.5458984c-0.5009766-0.4526367-1.050293-0.6704102-1.6484375-0.6533203   c-0.5981445,0.0175781-1.1264648,0.2797852-1.5849609,0.7871094l-1.9199219,2.1225586L381.2440186,80.112793z"/>
	<path class="st4" d="M393.1219482,72.2871094l-7.0263672-8.8666992l3.6181641-2.8671875l7.0268555,8.8662109   c0.7041016,0.8886719,1.4648438,1.3999023,2.2822266,1.5327148c0.8173828,0.1333008,1.6494141-0.1357422,2.4960938-0.8066406   c0.8461914-0.6708984,1.3051758-1.4243164,1.3764648-2.262207c0.0712891-0.8369141-0.2451172-1.7006836-0.9492188-2.5893555   l-7.0268555-8.8662109l3.6186523-2.8676758l7.0263672,8.8662109c1.0400391,1.3120117,1.6303711,2.6875,1.7709961,4.1259766   c0.1411133,1.4384766-0.0839844,2.7485352-0.6757812,3.9291992s-1.4375,2.2070312-2.5375977,3.0791016   c-1.7216797,1.3637695-3.5991211,1.9794922-5.6337891,1.8461914   C396.4534912,75.2739258,394.664917,74.2338867,393.1219482,72.2871094z"/>
	<path class="st4" d="M404.4788818,49.7109375l7.2265625-3.9487305c1.6899414-0.9233398,3.2612305-1.2480469,4.7128906-0.9750977   c1.4521484,0.2734375,2.5234375,1.0419922,3.2138672,2.3056641c1.0268555,1.8798828,0.6235352,3.7509766-1.2094727,5.6142578   c1.2080078-0.4545898,2.3549805-0.4765625,3.4414062-0.0649414s1.9140625,1.1381836,2.4838867,2.1806641   c0.7250977,1.3271484,0.8154297,2.6469727,0.2709961,3.9594727c-0.5439453,1.3129883-1.6850586,2.4438477-3.4228516,3.3930664   l-7.6293945,4.168457L404.4788818,49.7109375z M410.2137451,50.5771484l1.9677734,3.6015625l2.6533203-1.449707   c0.5844727-0.3193359,0.9726562-0.7260742,1.1640625-1.2207031c0.1914062-0.4941406,0.1254883-1.0375977-0.1982422-1.6298828   s-0.7475586-0.9453125-1.2709961-1.059082c-0.5239258-0.1142578-1.078125-0.0112305-1.6625977,0.3081055L410.2137451,50.5771484z    M415.9354248,61.0498047l3.0566406-1.6699219c0.5527344-0.3017578,0.9199219-0.7177734,1.1025391-1.2485352   c0.1816406-0.5297852,0.1132812-1.0874023-0.2060547-1.671875c-0.3193359-0.5839844-0.7475586-0.9550781-1.2851562-1.1132812   c-0.5371094-0.1572266-1.0825195-0.0849609-1.6352539,0.2167969l-3.1040039,1.6958008L415.9354248,61.0498047z"/>
	<path class="st4" d="M423.4447021,40.1469727l4.328125-1.6074219l5.3774414,14.4775391l5.3911133-2.0024414l1.222168,3.2905273   l-9.7192383,3.6098633L423.4447021,40.1469727z"/>
	<path class="st4" d="M443.1419678,53.4541016l-4.6655273-18.3706055l4.4750977-1.1367188l4.6650391,18.3710938   L443.1419678,53.4541016z"/>
	<path class="st4" d="M453.3778076,48.3583984c-2.0722656-1.605957-3.2646484-3.8046875-3.5771484-6.5952148   c-0.3125-2.7910156,0.3642578-5.1982422,2.0302734-7.2236328c1.6660156-2.0244141,3.8496094-3.1884766,6.5507812-3.4907227   c2.0932617-0.234375,4.0151367,0.1118164,5.7675781,1.0385742c1.7514648,0.9272461,3.0600586,2.3383789,3.9243164,4.2338867   l-5.4736328,0.612793c-0.8701172-1.2973633-2.0922852-1.8579102-3.6660156-1.6816406   c-1.5742188,0.1762695-2.7583008,0.8071289-3.5512695,1.8916016c-0.7929688,1.0854492-1.0976562,2.4506836-0.9130859,4.0961914   c0.184082,1.6459961,0.7827148,2.9101562,1.7963867,3.7924805c1.0131836,0.8833008,2.3071289,1.2363281,3.8813477,1.0600586   s2.6420898-0.9926758,3.2036133-2.4506836l5.4736328-0.612793c-0.4238281,2.0400391-1.3876953,3.7055664-2.8911133,4.996582   c-1.5039062,1.2915039-3.3017578,2.0541992-5.3950195,2.2885742   C457.8372803,50.6166992,455.4505615,49.9648438,453.3778076,48.3583984z"/>
	<path class="st4" d="M483.7161865,47.269043c-1.5761719-2.0961914-2.1455078-4.5317383-1.7109375-7.3056641   s1.7226562-4.9179688,3.8632812-6.4316406c2.1416016-1.5136719,4.5546875-2.0605469,7.2402344-1.6396484   c2.0800781,0.3261719,3.8427734,1.1674805,5.2890625,2.5234375c1.4453125,1.3564453,2.3349609,3.0625,2.6679688,5.1186523   l-5.4414062-0.8525391c-0.4970703-1.480957-1.5273438-2.34375-3.0917969-2.5888672   c-1.5654297-0.2456055-2.8740234,0.0507812-3.9248047,0.8876953c-1.0517578,0.8374023-1.7050781,2.0742188-1.9619141,3.7104492   c-0.2558594,1.6362305-0.0117188,3.0136719,0.7333984,4.1318359c0.7441406,1.1191406,1.8994141,1.8007812,3.4638672,2.0463867   c1.5644531,0.2451172,2.8105469-0.2607422,3.7363281-1.519043l5.4414062,0.8530273   c-0.9462891,1.855957-2.3154297,3.2080078-4.1064453,4.0571289s-3.7265625,1.1103516-5.8076172,0.7841797   C487.4212646,50.6235352,485.2913818,49.3652344,483.7161865,47.269043z"/>
	<path class="st4" d="M507.7923584,35.3203125l4.3974609,1.4067383l-4.7070312,14.7094727l5.4775391,1.7529297l-1.0693359,3.3427734   l-9.875-3.159668L507.7923584,35.3203125z"/>
	<path class="st4" d="M517.1507568,55.8398438c-0.8535156-2.4858398-0.6494141-4.9829102,0.6132812-7.4907227   c1.2636719-2.5078125,3.1455078-4.1547852,5.6474609-4.9404297c2.5009766-0.7856445,4.9707031-0.5654297,7.40625,0.6611328   s4.0742188,3.074707,4.9160156,5.5444336c0.8427734,2.4697266,0.6318359,4.9584961-0.6308594,7.4663086   s-3.1435547,4.1606445-5.6416016,4.9584961c-2.4970703,0.7978516-4.9599609,0.5854492-7.3876953-0.6367188   C519.645874,60.1796875,518.005249,58.3256836,517.1507568,55.8398438z M527.9036865,57.8994141   c1.2568359-0.4755859,2.2578125-1.4526367,3.0029297-2.9316406s0.9335938-2.8652344,0.5673828-4.1582031   s-1.2285156-2.2817383-2.5869141-2.9658203c-1.359375-0.684082-2.6669922-0.7885742-3.9238281-0.3129883   c-1.2578125,0.4750977-2.2578125,1.4526367-3.0029297,2.9311523c-0.7451172,1.4794922-0.9345703,2.8657227-0.5673828,4.1582031   c0.3662109,1.293457,1.2285156,2.2817383,2.5878906,2.9658203   C525.3392334,58.2700195,526.6468506,58.3745117,527.9036865,57.8994141z"/>
	<path class="st4" d="M537.5443115,61.0141602l6.8349609-9.0151367l3.6787109,2.7890625l-6.8339844,9.0151367   c-0.6855469,0.9038086-0.9902344,1.7680664-0.9150391,2.5927734c0.0742188,0.824707,0.5419922,1.5634766,1.4033203,2.2158203   c0.8603516,0.652832,1.7050781,0.9091797,2.5341797,0.7695312c0.828125-0.1396484,1.5849609-0.6616211,2.2705078-1.5654297   l6.8339844-9.0151367l3.6796875,2.7895508l-6.8349609,9.0151367c-1.0107422,1.3339844-2.1953125,2.2485352-3.5537109,2.7436523   s-2.6826172,0.6035156-3.9736328,0.3251953c-1.2910156-0.2788086-2.4960938-0.8417969-3.6142578-1.6904297   c-1.75-1.3266602-2.8144531-2.9916992-3.1923828-4.9951172C535.4827881,64.9853516,536.0443115,62.9936523,537.5443115,61.0141602z   "/>
	<path class="st4" d="M566.8099365,71.2553711c2.0517578,2.2211914,3.09375,4.6411133,3.1240234,7.2597656   s-0.9824219,4.878418-3.0380859,6.777832s-4.3916016,2.7338867-7.0058594,2.503418   c-2.6152344-0.2304688-4.9482422-1.456543-7.0009766-3.6772461l-4.5263672-4.8979492l13.9208984-12.8637695L566.8099365,71.2553711   z M554.074585,80.2299805l1.3925781,1.5068359c1.1972656,1.2954102,2.5341797,1.9467773,4.0117188,1.9545898   c1.4765625,0.0073242,2.8828125-0.605957,4.21875-1.8398438c1.3349609-1.2338867,2.0566406-2.5874023,2.1660156-4.0605469   c0.109375-1.4736328-0.4345703-2.8579102-1.6318359-4.1533203l-1.3925781-1.5073242L554.074585,80.2299805z"/>
</g>
<circle class="st3" cx="472.6040344" cy="160" r="84.9999847"/>
<g>
	<g>
		<g>
			<title>gce</title>
			<path class="st4" d="M455.5667725,148.3195953l17.7912903-10.2672272l16.4813538,9.5170288l21.2734985,21.0831146     l4.1762085-7.3337555c1.0338135-2.0451965,1.0338135-4.4599609,0-6.5051575l-18.1383057-31.4399033     c-1.2483521-1.9060364-3.3240967-3.1099396-5.5982666-3.2470245h-36.3552551     c-2.274292,0.137085-4.3499756,1.3409882-5.5982666,3.2470245l-18.183197,31.4510574     c-1.0337219,2.0452423-1.0337219,4.4600067,0,6.5052032l18.1495972,31.4398956     c1.248291,1.9060364,3.3239746,3.1099396,5.5982666,3.2470245h28.2376709l-27.8345947-27.7114868V148.3195953z"/>
			<path class="st4" d="M497.0162048,192.7803802l13.8611145-24.0393372l-21.2046509-21.0149078l-16.427887-9.4862671     l-17.678009,10.234024V168.39505l27.7446289,27.6218262h8.1246033     C493.7029724,195.8802338,495.7719421,194.6802216,497.0162048,192.7803802z"/>
		</g>
		<path class="st3" d="M489.5829468,147.1798248l-14.4627991-8.3494873c-1.0430298-0.6022186-2.3281555-0.6022186-3.3712463,0    l-14.4852295,8.3494873c-1.0515747,0.6017761-1.6993713,1.7214813-1.6968994,2.9330292v16.6990662    c-0.0024719,1.2115326,0.6453247,2.3312531,1.6968994,2.9329681l14.462738,8.3495331    c1.0430908,0.6022339,2.3282166,0.6022339,3.3713074,0l14.4852295-8.3495331    c1.0516052-0.6017151,1.6993103-1.7214355,1.6968689-2.9329681V150.112854    C491.2822571,148.9013062,490.634552,147.781601,489.5829468,147.1798248z M473.5822754,175.0466003l-13.8164673-7.9461517    l5.2899475-3.225296l8.3675232,4.0958252v-8.7971954l-8.9282227-4.6592865v7.820755l-5.5801697,3.4034424v-15.6324921    l13.3923645-7.6841125v6.6321564l-7.2403259,4.2855682l8.5487671,4.6873322l8.5487976-4.6873322l-7.6252136-4.2632446v-6.6321716    l13.3924255,7.6841736v15.4317932l-4.4641113-3.1807098v-7.8620453l-8.9283142,4.6530457v8.8003235l7.5917969-4.1404877    l5.3010864,3.236496L473.5822754,175.0466003z"/>
	</g>
</g>
<g>
	<path class="st4" d="M764.5546265,363.3087463l-7.2593994,1.6562805v-47.0135498l7.2593994,1.6594238V363.3087463"/>
	<path class="st4" d="M773.6119995,366.0836182l-9.057373,2.5739441v-54.3343201l9.057373,2.5708008V366.0836182    M785.2307129,368.9346619l-11.6187134,4.2520752v-63.3926697l11.6187134,4.2501221V368.9346619 M816.2973022,363.4504395   l-31.0665894,15.5332947v-75l31.0665894,15.5332642V363.4504395"/>
	<path class="st5" d="M779.0379639,307.0805969l6.192749-3.0968628v75l-6.192749-3.0958862V307.0805969 M768.8181152,312.1899109   l4.7938843-2.3968201v63.3812866l-4.7938843-2.3968506V312.1899109 M760.7359009,316.2316284l3.8187256-1.9093628v54.322937   l-3.8187256-1.9105835V316.2316284 M757.2952271,317.9514771l-3.114563,1.5572815v43.9508972l3.114563,1.5563354V317.9514771"/>
</g>
<g>
	<g>
		<g>
			<g>
				<g>
					<path class="st4" d="M208.2606354,326.4166565l-1.0634308-6.283905       c-0.3383636-2.0302124-1.1117859-3.6737366-1.7401581-3.6737366c-0.6283875,0-1.1601105,1.691864-1.1601105,3.7220459       v1.6434937c0,2.0301819-1.6918182,3.7220459-3.7220306,3.7220459h-1.6434937c-0.0966797,0-0.2416992,0-0.3383484,0v4.5437317       c0.0966492,0,0.2416687,0,0.3383484,0h6.1872711C207.1972046,330.090332,208.5990143,328.4468689,208.2606354,326.4166565"/>
					<path class="st4" d="M193.4208679,321.0994568h-10.0543213c-0.0966644,0-0.1450043,0-0.2416687,0h-10.2960205       c-0.1450195,0-0.2416992,0-0.3383484,0.0483398v-0.9667358c0-2.0301819-0.531723-3.7220459-1.1601105-3.7220459       c-0.6284027,0-1.4018097,1.6435242-1.7401886,3.6737366l-1.0634308,6.283905       c-0.3383789,2.0302124,1.0634308,3.6736755,3.0936279,3.6736755h6.2356262       c0.6283875,0,1.2567902-0.0966492,1.7401581-0.2900085c-0.1933441,1.0634155-1.1117706,1.8368225-2.2235413,1.8368225       h-8.7008514c-1.4018097,0-2.4652405-1.2567749-2.2235413-2.6585693l0.8700867-5.2688599       c0.241684-1.4017944-0.8217621-2.6585693-2.2235718-2.6585693h-43.165863       c-0.9184189,0-1.6918259,0.5317078-2.0785294,1.3534241l-8.1207809,12.4229126       c-0.1450119,0.1933289-0.1450119,0.4833984,0.0483246,0.6766968l1.5951691,1.8852234       c0.1933441,0.2416992,0.5317154,0.2900391,0.773407,0.0966492l5.5105362-4.3504028v26.4892273       c0,1.2568054,1.0151062,2.2718811,2.2718735,2.2718811h12.2778778c1.2567902,0,2.2718964-1.0150757,2.2718964-2.2718811       v-9.1842041c0-1.2567749,1.0150757-2.2718811,2.2718658-2.2718811h30.5979767       c1.2567902,0,2.2718811,1.0151062,2.2718811,2.2718811v9.1842041c0,1.2568054,1.0151062,2.2718811,2.2718964,2.2718811       h12.2778473c1.2568054,0,2.2718964-1.0150757,2.2718964-2.2718811v-10.0059814h-6.5256348       c-2.0301971,0-3.7220306-1.691803-3.7220306-3.7220154v-6.3322754c0-1.2084656,0.5800476-2.2719116,1.4984894-2.9486084       v7.5890503c0,2.0302124,1.6918182,3.7220459,3.7220306,3.7220459h10.054306       c2.0301971,0,3.7220306-1.6918335,3.7220306-3.7220459v-19.3352051       C197.1428986,322.7913208,195.4510498,321.0994568,193.4208679,321.0994568"/>
				</g>
			</g>
		</g>
	</g>
</g>
<g>
	<path class="st4" d="M785.1062012,737.3909912V723.425415c14.8065796,0,26.2279663-14.5984497,20.5193481-30.0464478   c-2.1028442-5.8046265-6.6743164-10.3760986-12.4789429-12.4789429   c-11.40448-4.2883301-24.1260376,1.4804077-28.4143677,12.8848877c-0.9180298,2.4414062-1.395813,5.0262451-1.4111938,7.6345215   h-13.9613647c0-23.276001,22.6346436-41.6844482,47.380249-34.0645142   c10.793335,3.3902588,19.2463989,11.8448486,22.6346436,22.638855   C826.9902344,714.7521362,808.5860596,737.3909912,785.1062012,737.3909912z"/>
	<polyline class="st4" points="785.3185425,723.425415 771.3571777,723.425415 771.3571777,709.6721802 785.3185425,709.6721802     "/>
	<polyline class="st4" points="771.3571777,734.2181396 760.7810669,734.2181396 760.7810669,723.425415 771.3571777,723.425415    771.3571777,734.2181396  "/>
	<polyline class="st4" points="760.7810669,723.425415 751.9081421,723.425415 751.9081421,714.5397339 760.7810669,714.5397339     "/>
</g>
<g>
	<path class="st6" d="M1181.449707,737.3909912V723.425415c14.8065186,0,26.2279053-14.5984497,20.5192871-30.0464478   c-2.1027832-5.8046265-6.6743164-10.3760986-12.4788818-12.4789429   c-11.404541-4.2883301-24.1260986,1.4804077-28.4144287,12.8848877c-0.9179688,2.4414062-1.395752,5.0262451-1.4111328,7.6345215   h-13.9614258c0-23.276001,22.6346436-41.6844482,47.380249-34.0645142   c10.793335,3.3902588,19.24646,11.8448486,22.6346436,22.638855   C1223.3337402,714.7521362,1204.9295654,737.3909912,1181.449707,737.3909912z"/>
	<polyline class="st6" points="1181.6619873,723.425415 1167.7006836,723.425415 1167.7006836,709.6721802    1181.6619873,709.6721802  "/>
	<polyline class="st6" points="1167.7006836,734.2181396 1157.1245117,734.2181396 1157.1245117,723.425415    1167.7006836,723.425415 1167.7006836,734.2181396  "/>
	<polyline class="st6" points="1157.1245117,723.425415 1148.2515869,723.425415 1148.2515869,714.5397339    1157.1245117,714.5397339  "/>
</g>
<g>
	<path class="st7" d="M689.8929443,431.1992188l1.6835938-2.9033203l-4.5185547-5.0869141l-3.0810547,1.328125l-3.2636719-3.6748047   l18.5878906-7.6953125l3.7294922,4.1992188l-9.8564453,17.5273438L689.8929443,431.1992188z M690.4534912,421.7460938   l2.9765625,3.3515625l3.5585938-6.1582031L690.4534912,421.7460938z"/>
	<path class="st7" d="M728.8031006,438.4541016l-10.9580078,15.4648438L714.0784912,451.25l6.1816406-8.7246094   l-9.7734375,6.1796875l-2.796875-1.9824219l2.5898438-11.2675781l-6.1816406,8.7236328l-3.7666016-2.6699219l10.9580078-15.4648438   l4.3183594,3.0595703l-3.1054688,13.8164062l11.9833984-7.5253906L728.8031006,438.4541016z"/>
	<path class="st7" d="M739.21521,463.7265625l0.2373047-3.3476562l-6.2919922-2.5878906l-2.1855469,2.5458984l-4.5449219-1.8701172   l13.3242188-15.0722656l5.1933594,2.1367188l-1.1640625,20.0751953L739.21521,463.7265625z M735.5697021,454.9863281   l4.1445312,1.7050781l0.4960938-7.0947266L735.5697021,454.9863281z"/>
	<path class="st7" d="M768.6282959,451.9804688l-0.7246094,3.4345703l-10.3613281,10.0117188l7.8994141,1.6650391   l-0.7246094,3.4355469l-13.1035156-2.7636719l0.7236328-3.4335938l10.3623047-10.0117188l-7.8994141-1.6660156l0.7246094-3.4345703   L768.6282959,451.9804688z"/>
	<path class="st7" d="M776.4613037,469.2998047c-1.8515625-1.8652344-2.7548828-4.2021484-2.7099609-7.0097656   c0.0439453-2.8076172,1.0214844-5.109375,2.9316406-6.9072266c1.9101562-1.7958984,4.2275391-2.6728516,6.9541016-2.6298828   c2.7275391,0.0439453,5.0078125,0.9941406,6.8417969,2.8505859c1.8330078,1.8554688,2.7265625,4.1875,2.6826172,6.9960938   c-0.0439453,2.8066406-1.0175781,5.1142578-2.9189453,6.9199219c-1.9003906,1.8066406-4.2109375,2.6875-6.9277344,2.6445312   C780.5970459,472.1210938,778.3128662,471.1660156,776.4613037,469.2998047z M787.0374756,466.4707031   c0.9248047-0.9746094,1.4003906-2.2900391,1.4267578-3.9462891c0.0263672-1.6552734-0.4072266-2.9853516-1.2998047-3.9902344   c-0.8935547-1.0039062-2.1015625-1.5185547-3.6210938-1.5429688c-1.5214844-0.0244141-2.7441406,0.4521484-3.6679688,1.4267578   c-0.9257812,0.9755859-1.4003906,2.2910156-1.4267578,3.9462891c-0.0263672,1.6572266,0.40625,2.9873047,1.2998047,3.9912109   c0.8925781,1.0039062,2.0996094,1.5175781,3.6210938,1.5419922   C784.8900146,467.921875,786.1126709,467.4472656,787.0374756,466.4707031z"/>
	<path class="st7" d="M811.4720459,449.9785156l4.5244141-0.9189453l3.7832031,18.6279297l-4.5253906,0.9189453   l-9.9472656-10.1845703l2.3808594,11.7216797l-4.5253906,0.9189453l-3.7832031-18.6279297l4.5253906-0.9189453   l9.9472656,10.1845703L811.4720459,449.9785156z"/>
	<path class="st7" d="M843.0003662,437.2001953l1.6455078,3.1005859l-6.0585938,3.2138672l1.9101562,3.6015625l5.3427734-2.8339844   l1.6445312,3.1005859l-5.3417969,2.8339844l2.0615234,3.8876953l6.0585938-3.2128906l1.6445312,3.1005859l-10.1367188,5.3769531   l-8.9072266-16.7919922L843.0003662,437.2001953z"/>
	<path class="st7" d="M860.583374,445.3291016c-2.6103516-0.2548828-4.7900391-1.4804688-6.5419922-3.6757812   c-1.7509766-2.1953125-2.4599609-4.5927734-2.1289062-7.1943359c0.3300781-2.6005859,1.5585938-4.7490234,3.6835938-6.4443359   c1.6464844-1.3134766,3.4580078-2.0439453,5.4345703-2.1933594c1.9755859-0.1484375,3.8349609,0.3486328,5.5761719,1.4921875   l-4.3056641,3.4345703c-1.4277344-0.6347656-2.7597656-0.4580078-3.9980469,0.5292969   c-1.2382812,0.9882812-1.9042969,2.1533203-1.9980469,3.4931641c-0.0927734,1.3408203,0.3769531,2.6591797,1.4101562,3.953125   c1.0322266,1.2949219,2.2119141,2.0458984,3.5400391,2.2529297s2.6113281-0.1835938,3.8496094-1.1708984   c1.2373047-0.9882812,1.7070312-2.2480469,1.4052734-3.78125l4.3056641-3.4345703   c0.7285156,1.9521484,0.7998047,3.875,0.2158203,5.7685547c-0.5849609,1.8945312-1.7001953,3.4980469-3.3466797,4.8115234   C865.5599365,444.8642578,863.192749,445.5839844,860.583374,445.3291016z"/>
	<path class="st7" d="M880.4866943,431.0488281l-2.6035156-2.2324219c-0.0117188-0.6503906-0.0175781-1.5556641-0.0175781-2.7167969   c0.0009766-1.1621094-0.0019531-2.0654297-0.0058594-2.7099609c-0.0048828-0.6435547-0.0390625-1.4199219-0.1015625-2.3271484   c-0.0634766-0.9082031-0.1601562-1.6318359-0.2910156-2.1708984c-0.3378906-1.4033203-0.8339844-2.3876953-1.4902344-2.9501953   c-1.1601562-0.9951172-2.1816406-0.9804688-3.0605469,0.0439453c-0.421875,0.4912109-0.5820312,1.0302734-0.4785156,1.6162109   c0.1015625,0.5859375,0.4804688,1.1601562,1.1367188,1.7226562l-2.9003906,3.3808594   c-1.6386719-1.40625-2.4726562-2.9433594-2.4980469-4.6142578c-0.0263672-1.6699219,0.6230469-3.2773438,1.9472656-4.8212891   c1.3242188-1.5429688,2.796875-2.3681641,4.4160156-2.4736328c1.6191406-0.1044922,3.0507812,0.3759766,4.2939453,1.4423828   c0.9423828,0.8085938,1.59375,1.7226562,1.953125,2.7412109c0.1982422,0.5976562,0.3652344,1.1083984,0.5,1.5322266   c0.1337891,0.4238281,0.2382812,1.0224609,0.3095703,1.7958984c0.0722656,0.7724609,0.1220703,1.3369141,0.1494141,1.6923828   s0.0537109,0.9882812,0.078125,1.8984375c0.0253906,0.9121094,0.0478516,1.4941406,0.0673828,1.7480469l4.5693359-5.3291016   l2.8496094,2.4423828L880.4866943,431.0488281z"/>
</g>
<g>
	<path class="st7" d="M689.0863037,759.9941406c1.5966797,2.5683594,2.1630859,5.140625,1.6992188,7.71875   c-0.4628906,2.578125-1.8828125,4.6054688-4.2597656,6.0839844s-4.828125,1.8574219-7.3525391,1.1386719   s-4.5849609-2.3632812-6.1826172-4.9296875l-3.5214844-5.6640625l16.0947266-10.0097656L689.0863037,759.9941406z    M674.887085,766.4082031l1.0839844,1.7441406c0.9316406,1.4960938,2.1220703,2.3886719,3.5722656,2.6738281   c1.4492188,0.2851562,2.9453125-0.0507812,4.4892578-1.0117188c1.5439453-0.9589844,2.5087891-2.1542969,2.8935547-3.5800781   c0.3837891-1.4257812,0.1103516-2.8886719-0.8203125-4.3867188l-1.0839844-1.7421875L674.887085,766.4082031z"/>
	<path class="st7" d="M684.1136475,785.6152344l14.3642578-12.3671875l3.0126953,3.4980469l-14.3642578,12.3671875   L684.1136475,785.6152344z"/>
	<path class="st7" d="M696.9075928,795.6621094c-0.2568359-2.609375,0.5214844-4.9863281,2.3339844-7.1308594   c1.8134766-2.1445312,4.0273438-3.3066406,6.6435547-3.4863281c2.6152344-0.1816406,4.9619141,0.6054688,7.0371094,2.359375   c1.6083984,1.3613281,2.6777344,2.9960938,3.2080078,4.9042969c0.5302734,1.9101562,0.4042969,3.8300781-0.3798828,5.7617188   l-4.2060547-3.5566406c0.3447266-1.5234375-0.0869141-2.796875-1.296875-3.8203125   c-1.2099609-1.0214844-2.4814453-1.4472656-3.8144531-1.2792969c-1.3330078,0.1699219-2.5341797,0.8867188-3.6035156,2.1503906   c-1.0693359,1.265625-1.5771484,2.5683594-1.5214844,3.9121094c0.0546875,1.3417969,0.6669922,2.5078125,1.8349609,3.4960938   c0.8388672,0.7070312,1.6992188,1.078125,2.5839844,1.1054688c0.8828125,0.0273438,1.7109375-0.234375,2.4824219-0.7832031   l-4.0830078-3.4511719l2.2666016-2.6796875l7.8759766,6.6582031l-2.2666016,2.6796875   c-1.3759766,1.0996094-3.1386719,1.71875-5.2851562,1.8613281c-1.0283203,0.0722656-2.1035156-0.0703125-3.2255859-0.4296875   S701.3411865,803,700.4066162,802.2089844C698.3304443,800.4550781,697.1644287,798.2714844,696.9075928,795.6621094z"/>
	<path class="st7" d="M714.96521,812.6738281l9.8398438-16.2011719l3.9462891,2.3964844l-9.8398438,16.2011719   L714.96521,812.6738281z"/>
	<path class="st7" d="M732.2259521,805.0117188l1.3984375-3.21875l13.71875,5.9609375l-1.3994141,3.2207031l-4.7539062-2.0664062   l-6.1542969,14.1640625l-4.2363281-1.8398438l6.15625-14.1640625L732.2259521,805.0117188z"/>
	<path class="st7" d="M760.4007568,830.7265625l-0.3203125-3.3398438l-6.6347656-1.5058594l-1.7333984,2.8730469   l-4.7919922-1.0898438l10.6347656-17.0761719l5.4775391,1.2441406l2.1865234,19.9902344L760.4007568,830.7265625z    M755.3548584,822.7148438l4.3701172,0.9921875l-0.6894531-7.078125L755.3548584,822.7148438z"/>
	<path class="st7" d="M774.7288818,813.6484375l4.6113281,0.2441406l-0.8115234,15.421875l5.7431641,0.3027344l-0.1835938,3.5039062   l-10.3535156-0.5429688L774.7288818,813.6484375z"/>
	<path class="st7" d="M806.9222412,828.75c-2.2402344-1.375-3.6699219-3.4316406-4.2890625-6.171875   c-0.6201172-2.7382812-0.2138672-5.2050781,1.2167969-7.4023438s3.4765625-3.5976562,6.1367188-4.1992188   s5.1005859-0.2167969,7.3193359,1.1542969c2.2216797,1.3691406,3.6416016,3.4257812,4.2607422,6.1640625   s0.21875,5.2089844-1.2011719,7.4140625c-1.4199219,2.203125-3.4570312,3.6054688-6.1074219,4.2050781   S809.161499,830.125,806.9222412,828.75z M816.5316162,823.5039062c0.6669922-1.1660156,0.8183594-2.5566406,0.453125-4.171875   s-1.1015625-2.8066406-2.2050781-3.5703125c-1.1064453-0.765625-2.4003906-0.9804688-3.8828125-0.6445312   c-1.484375,0.3359375-2.5595703,1.0878906-3.2285156,2.2539062c-0.6679688,1.1660156-0.8183594,2.5566406-0.453125,4.171875   s1.1005859,2.8046875,2.2050781,3.5703125c1.1054688,0.7636719,2.4003906,0.9785156,3.8837891,0.6425781   S815.8626709,824.6699219,816.5316162,823.5039062z"/>
	<path class="st7" d="M833.6624756,821.1289062c-2.4755859-0.8652344-4.3027344-2.5722656-5.4853516-5.1191406   s-1.3037109-5.0449219-0.3671875-7.4941406c0.9375-2.4492188,2.6386719-4.2460938,5.1044922-5.3886719   c1.9101562-0.8867188,3.8427734-1.1679688,5.7988281-0.8457031c1.9560547,0.3242188,3.6435547,1.2460938,5.0654297,2.7695312   l-4.9970703,2.3183594c-1.2363281-0.9550781-2.5722656-1.0976562-4.0097656-0.4316406   c-1.4365234,0.6660156-2.359375,1.640625-2.7666016,2.9199219c-0.4082031,1.28125-0.2636719,2.671875,0.4326172,4.1757812   c0.6982422,1.5019531,1.6669922,2.5117188,2.9082031,3.0253906c1.2412109,0.515625,2.5800781,0.4394531,4.0166016-0.2265625   s2.1904297-1.7792969,2.2597656-3.3398438l4.9970703-2.3183594c0.2451172,2.0683594-0.1396484,3.953125-1.15625,5.6542969   c-1.015625,1.703125-2.4794922,2.9960938-4.3896484,3.8828125   C838.6077881,821.8554688,836.1380615,821.9941406,833.6624756,821.1289062z"/>
	<path class="st7" d="M855.5511475,789.5195312l2.0429688,2.8535156l-5.5751953,3.9921875l2.3730469,3.3164062l4.9169922-3.5214844   l2.0429688,2.8535156l-4.9160156,3.5214844l2.5625,3.578125l5.5751953-3.9941406l2.0439453,2.8554688l-9.3300781,6.6796875   l-11.0664062-15.453125L855.5511475,789.5195312z"/>
	<path class="st7" d="M883.0091553,789.578125l-3.0244141-1.453125l-4.7207031,4.9003906l1.5634766,2.96875l-3.4101562,3.5371094   l-9.1171875-17.9316406l3.8974609-4.0449219l18.2402344,8.4648438L883.0091553,789.578125z M873.5413818,789.7539062   l3.109375-3.2285156l-6.4150391-3.0703125L873.5413818,789.7539062z"/>
	<path class="st7" d="M882.5374756,758.0859375l2.4541016-3.9101562l16.0996094,10.1035156l-2.4541016,3.9121094   l-14.2363281,0.1816406l10.1318359,6.3574219l-2.4550781,3.9121094l-16.0996094-10.1054688l2.4541016-3.9101562   l14.2363281-0.1816406L882.5374756,758.0859375z"/>
</g>
<g>
	<path class="st7" d="M400.9700928,992.2939453l4.2807617-19.6503906l4.175293,2.5908203l-3.6235352,14.7509766l11.6079102-9.796875   l4.175293,2.5908203l-15.7060547,12.5605469L400.9700928,992.2939453z"/>
	<path class="st7" d="M431.2684326,990.3173828c-0.5390625-0.2050781-1.0351562-0.2294922-1.4882812-0.0742188   c-0.4541016,0.1552734-0.7827148,0.5019531-0.9873047,1.0400391c-0.2045898,0.5390625-0.2089844,1.0322266-0.0141602,1.4824219   c0.1948242,0.4492188,0.515625,0.859375,0.9619141,1.2314453c0.4462891,0.3710938,0.9545898,0.7568359,1.5249023,1.15625   c0.5703125,0.4003906,1.1235352,0.8310547,1.659668,1.2949219s0.9970703,0.9609375,1.3828125,1.4931641   c0.3852539,0.53125,0.6210938,1.1650391,0.7080078,1.9003906c0.0859375,0.7353516-0.0332031,1.5322266-0.359375,2.390625   c-0.5688477,1.4980469-1.6660156,2.5488281-3.2915039,3.1542969c-1.6264648,0.6054688-3.4360352,0.5292969-5.4296875-0.2285156   c-1.9941406-0.7568359-3.4194336-1.8466797-4.2749023-3.2695312c-0.855957-1.421875-0.9482422-3.0166016-0.2768555-4.7841797   l4.59375,1.7451172c-0.4194336,1.4580078,0.0361328,2.4394531,1.3652344,2.9443359   c0.6225586,0.2363281,1.1733398,0.2578125,1.6508789,0.0634766c0.4780273-0.1933594,0.8129883-0.5429688,1.0048828-1.0478516   c0.1914062-0.5048828,0.1879883-0.9775391-0.0097656-1.4189453c-0.1987305-0.4404297-0.5195312-0.8515625-0.9619141-1.2314453   c-0.4433594-0.3798828-0.949707-0.7695312-1.5200195-1.1689453s-1.1225586-0.8359375-1.6552734-1.3076172   c-0.5332031-0.4716797-0.9941406-0.9697266-1.3828125-1.4931641c-0.3886719-0.5224609-0.6264648-1.1513672-0.7124023-1.8876953   c-0.0869141-0.7353516,0.0297852-1.5234375,0.3496094-2.3652344c0.6259766-1.6494141,1.7416992-2.7363281,3.3476562-3.2636719   c1.6049805-0.5253906,3.362793-0.4267578,5.2729492,0.2988281c1.909668,0.7255859,3.2890625,1.7451172,4.1381836,3.0585938   c0.8481445,1.3144531,0.9433594,2.9150391,0.284668,4.8017578l-4.6948242-1.7832031   c0.175293-0.6650391,0.15625-1.2353516-0.0576172-1.7109375   C432.1824951,990.8623047,431.8065186,990.5214844,431.2684326,990.3173828z"/>
	<path class="st7" d="M458.9886475,999.8378906c-0.2294922,1.2578125-0.9023438,2.3876953-2.019043,3.3916016   c-0.5878906,0.5146484-1.390625,0.8759766-2.4072266,1.0839844c-1.0170898,0.2070312-2.171875,0.1933594-3.4643555-0.0429688   l-2.8154297-0.5136719l-1.3237305,7.2509766l-4.5419922-0.8300781l3.4047852-18.6455078l7.3569336,1.34375   c2.1601562,0.3945312,3.7407227,1.2597656,4.7412109,2.5947266   C458.9197998,996.8066406,459.2762451,998.2617188,458.9886475,999.8378906z M448.9129639,1000.3037109l2.8154297,0.5136719   c0.690918,0.1259766,1.2724609,0.0224609,1.7451172-0.3125c0.4731445-0.3339844,0.7700195-0.8339844,0.8911133-1.4980469   c0.121582-0.6640625,0.0170898-1.2451172-0.3125-1.7451172c-0.3300781-0.4990234-0.8310547-0.8095703-1.5039062-0.9326172   l-2.8154297-0.5146484L448.9129639,1000.3037109z"/>
	<path class="st7" d="M477.855835,994.4755859l4.6152344-0.0742188l0.3085938,18.9511719l-4.6171875,0.0751953l-0.1269531-7.8564453   l-7.315918,0.1191406l0.1274414,7.8564453l-4.6162109,0.0742188l-0.3081055-18.9511719l4.6162109-0.0751953l0.1235352,7.5859375   l7.3164062-0.1181641L477.855835,994.4755859z"/>
	<path class="st7" d="M500.7103271,991.0976562l0.6982422,3.4404297l-6.7207031,1.3632812l0.8105469,3.9960938l5.9267578-1.203125   l0.6982422,3.4404297l-5.9277344,1.2021484l0.875,4.3134766l6.7216797-1.3642578l0.6982422,3.4404297l-11.2460938,2.2822266   l-3.7802734-18.6289062L500.7103271,991.0976562z"/>
	<path class="st7" d="M516.0140381,998.3330078l2.7148438,6.8525391l-4.2929688,1.7001953l-6.9804688-17.6210938l6.953125-2.7548828   c2.0410156-0.8085938,3.8398438-0.9111328,5.3964844-0.3076172c1.5546875,0.6035156,2.6279297,1.6503906,3.2177734,3.1396484   c0.4042969,1.0205078,0.4892578,2.1386719,0.2548828,3.3544922c-0.2353516,1.2158203-0.9755859,2.3037109-2.2226562,3.2617188   l7.1621094,5.46875l-5.0205078,1.9892578l-6.6806641-5.2822266L516.0140381,998.3330078z M513.0404053,990.8271484   l1.6806641,4.2421875l2.6601562-1.0537109c0.6533203-0.2587891,1.0917969-0.6542969,1.3154297-1.1894531   c0.2236328-0.5332031,0.2119141-1.1142578-0.0361328-1.7421875c-0.2490234-0.6269531-0.6455078-1.0654297-1.1894531-1.3154297   c-0.5449219-0.2490234-1.1347656-0.2470703-1.7695312,0.0048828L513.0404053,990.8271484z"/>
	<path class="st7" d="M536.4613037,974.7636719l1.84375,2.9863281l-5.8359375,3.6025391l2.1425781,3.4697266l5.1464844-3.1777344   l1.84375,2.9873047l-5.1464844,3.1767578l2.3115234,3.7451172l5.8359375-3.6025391l1.84375,2.9863281l-9.7646484,6.0283203   l-9.984375-16.1748047L536.4613037,974.7636719z"/>
</g>
<g>
	<path class="st7" d="M44.1107025,758.4248047c0.6821289-2.5322266,2.2509766-4.4794922,4.7055664-5.84375   c2.4536133-1.3652344,4.9365234-1.6679688,7.4472656-0.9121094c2.5102539,0.7558594,4.4267578,2.3222656,5.7475586,4.6982422   c1.0224609,1.8398438,1.4443359,3.7480469,1.2651367,5.7207031c-0.1801758,1.9746094-0.9775391,3.7255859-2.3930664,5.2539062   l-2.6762695-4.8134766c0.8618164-1.3027344,0.9077148-2.6474609,0.1376953-4.03125   c-0.7695312-1.3847656-1.8081055-2.2333984-3.1142578-2.546875c-1.3076172-0.3134766-2.6845703-0.0683594-4.1313477,0.7373047   c-1.4482422,0.8037109-2.3837891,1.84375-2.8066406,3.1191406c-0.4243164,1.2753906-0.2504883,2.6054688,0.519043,3.9902344   c0.769043,1.3847656,1.934082,2.0546875,3.4956055,2.0107422l2.6762695,4.8134766   c-2.0454102,0.3964844-3.9536133,0.1494141-5.7250977-0.7402344s-3.1679688-2.2548828-4.1918945-4.0957031   C43.7459564,763.4101562,43.4271088,760.9560547,44.1107025,758.4248047z"/>
	<path class="st7" d="M69.8353119,769.0605469l2.9101562,3.5859375l-11.9912109,9.7314453l3.6235352,4.4658203l-2.7250977,2.2119141   l-6.5336914-8.0498047L69.8353119,769.0605469z"/>
	<path class="st7" d="M72.6605072,789.7412109l7.4228516-8.5371094l3.484375,3.0292969l-7.4228516,8.5371094   c-0.7441406,0.8564453-1.1069336,1.6982422-1.0869141,2.5253906c0.019043,0.828125,0.4365234,1.5966797,1.2519531,2.3056641   s1.640625,1.0205078,2.4765625,0.9365234c0.8364258-0.0830078,1.6269531-0.5537109,2.3706055-1.4091797l7.4223633-8.5371094   l3.484375,3.0292969l-7.4223633,8.5361328c-1.0986328,1.2636719-2.3413086,2.0966797-3.7299805,2.5009766   c-1.3881836,0.4023438-2.7167969,0.421875-3.9863281,0.0576172s-2.4335938-1.0068359-3.4931641-1.9277344   c-1.6577148-1.4414062-2.6074219-3.1738281-2.8515625-5.1982422   C70.337265,793.5654297,71.0306244,791.6162109,72.6605072,789.7412109z"/>
	<path class="st7" d="M101.7376556,801.7246094c-0.5-0.2880859-0.9853516-0.390625-1.4580078-0.3105469   c-0.472168,0.0820312-0.8515625,0.3720703-1.1391602,0.8710938s-0.3706055,0.9863281-0.2495117,1.4609375   s0.3730469,0.9306641,0.7543945,1.3691406c0.3813477,0.4375,0.8217773,0.8994141,1.3217773,1.3837891   c0.4995117,0.4853516,0.9775391,0.9990234,1.4335938,1.5419922c0.4555664,0.5419922,0.8310547,1.1074219,1.1279297,1.6933594   c0.2958984,0.5859375,0.4277344,1.2480469,0.3964844,1.9882812s-0.2753906,1.5078125-0.7333984,2.3037109   c-0.7998047,1.3886719-2.050293,2.2519531-3.7509766,2.5917969c-1.7016602,0.3388672-3.4765625-0.0234375-5.324707-1.0869141   c-1.8491211-1.0644531-3.0825195-2.3671875-3.7016602-3.9072266s-0.456543-3.1298828,0.4863281-4.7666016l4.2583008,2.4511719   c-0.6455078,1.3730469-0.3515625,2.4140625,0.8813477,3.1240234c0.5761719,0.3320312,1.1166992,0.4404297,1.6191406,0.3251953   c0.5029297-0.1152344,0.8891602-0.4082031,1.1582031-0.8759766c0.2695312-0.4677734,0.3408203-0.9355469,0.2158203-1.4023438   c-0.1259766-0.4667969-0.3779297-0.9228516-0.7539062-1.3681641c-0.3779297-0.4453125-0.8154297-0.9111328-1.3154297-1.3964844   c-0.5-0.484375-0.9755859-1.0029297-1.4267578-1.5537109c-0.4511719-0.5498047-0.8271484-1.1152344-1.1279297-1.6923828   c-0.3012695-0.578125-0.4355469-1.2373047-0.4038086-1.9775391c0.0307617-0.7402344,0.2714844-1.5,0.7207031-2.2802734   c0.8798828-1.5283203,2.1538086-2.4248047,3.8227539-2.6904297c1.6689453-0.2646484,3.3886719,0.1123047,5.1591797,1.1318359   c1.7700195,1.0195312,2.9697266,2.2460938,3.6000977,3.6777344c0.6289062,1.4316406,0.4692383,3.0273438-0.480957,4.7851562   l-4.3525391-2.5058594c0.2792969-0.6279297,0.3505859-1.1943359,0.2148438-1.6982422   C102.5535736,802.4072266,102.2366791,802.0117188,101.7376556,801.7246094z"/>
	<path class="st7" d="M113.5149994,808.0839844l1.1904297-3.3017578l14.0717773,5.0712891l-1.1904297,3.3027344   l-4.8769531-1.7578125l-5.2368164,14.5292969l-4.3427734-1.5664062l5.2363281-14.5283203L113.5149994,808.0839844z"/>
	<path class="st7" d="M145.6922455,813.2011719l-0.6254883,3.4541016l-6.7480469-1.2216797l-0.7265625,4.0107422l5.9511719,1.078125   l-0.6254883,3.4541016l-5.9516602-1.078125l-0.7836914,4.3300781l6.7480469,1.2226562l-0.6254883,3.4541016l-11.2910156-2.0458984   l3.3867188-18.703125L145.6922455,813.2011719z"/>
	<path class="st7" d="M157.1927338,825.6064453l-0.0336914,7.3710938l-4.6171875-0.0214844l0.0874023-18.9541016   l7.4790039,0.0351562c2.1958008,0.0097656,3.902832,0.5849609,5.1220703,1.7246094   c1.2182617,1.1396484,1.824707,2.5097656,1.8168945,4.1123047c-0.0048828,1.0976562-0.3427734,2.1669922-1.0136719,3.2080078   s-1.7631836,1.7744141-3.2773438,2.1992188l4.6083984,7.7431641L161.9647064,833l-4.2319336-7.390625L157.1927338,825.6064453z    M157.2298431,817.5332031l-0.0209961,4.5634766l2.8618164,0.0136719c0.7021484,0.0029297,1.2568359-0.2021484,1.6640625-0.6142578   c0.40625-0.4111328,0.6118164-0.9550781,0.6147461-1.6298828s-0.2016602-1.2294922-0.6137695-1.6640625   c-0.4116211-0.4335938-0.9599609-0.6523438-1.6435547-0.6552734L157.2298431,817.5332031z"/>
	<path class="st7" d="M196.375351,808.0253906l4.4165039-1.34375l5.5336914,18.1835938l-4.4169922,1.3447266l-10.8701172-9.1953125   l3.4824219,11.4423828l-4.4169922,1.3447266l-5.5332031-18.1845703l4.4169922-1.34375l10.8696289,9.1943359L196.375351,808.0253906   z"/>
	<path class="st7" d="M216.8323822,817.40625c-2.5361328-0.6914062-4.4863281-2.2636719-5.8505859-4.71875   c-1.3642578-2.453125-1.6679688-4.9365234-0.9111328-7.4472656c0.7563477-2.5097656,2.3261719-4.4287109,4.7094727-5.7539062   c2.3833008-1.3242188,4.8334961-1.640625,7.3491211-0.9492188c2.5166016,0.6914062,4.4560547,2.2646484,5.8203125,4.71875   s1.6748047,4.9384766,0.9306641,7.453125c-0.7446289,2.5146484-2.3046875,4.4316406-4.6801758,5.7519531   C221.8240814,817.78125,219.368515,818.0966797,216.8323822,817.40625z M224.5804291,809.6699219   c0.3129883-1.3066406,0.0673828-2.6835938-0.7363281-4.1308594c-0.8046875-1.4472656-1.8452148-2.3828125-3.1206055-2.8066406   c-1.2758789-0.4238281-2.578125-0.2666016-3.9072266,0.4726562c-1.3295898,0.7392578-2.1508789,1.7626953-2.4643555,3.0683594   c-0.3139648,1.3076172-0.0678711,2.6845703,0.7363281,4.1318359c0.8046875,1.4482422,1.8447266,2.3837891,3.1201172,2.8066406   c1.2753906,0.4248047,2.578125,0.2666016,3.9072266-0.4726562S224.2669525,810.9765625,224.5804291,809.6699219z"/>
	<path class="st7" d="M233.2718353,786.9306641c2.2734375-1.9941406,4.7197266-2.9716797,7.3383789-2.9345703   c2.6186523,0.0380859,4.8510742,1.109375,6.6958008,3.2138672c1.8457031,2.1044922,2.6191406,4.4609375,2.3203125,7.0683594   c-0.2983398,2.6083984-1.5839844,4.9091797-3.8583984,6.9033203l-5.0136719,4.3964844l-12.4970703-14.2509766   L233.2718353,786.9306641z M241.9109955,799.8945312l1.5424805-1.3515625   c1.3266602-1.1640625,2.0126953-2.4833984,2.0585938-3.9599609s-0.5302734-2.8984375-1.7290039-4.265625   c-1.1987305-1.3662109-2.5336914-2.1240234-4.003418-2.2714844s-2.8681641,0.3603516-4.1943359,1.5234375l-1.5429688,1.3535156   L241.9109955,799.8945312z"/>
	<path class="st7" d="M251.9798431,766.4853516l2.7617188,2.1660156l-4.2329102,5.3955078l3.2080078,2.5166016l3.7329254-4.7587891   l2.7617188,2.1669922l-3.7333984,4.7587891l3.4624023,2.7158203l4.2329102-5.3955078l2.7617188,2.1660156l-7.0830078,9.0292969   l-14.9546051-11.7324219L251.9798431,766.4853516z"/>
	<path class="st7" d="M261.9202881,756.6376953c-0.2719727,0.5078125-0.3603516,0.9970703-0.2646484,1.4658203   c0.0957031,0.4707031,0.3974609,0.8408203,0.9042969,1.1132812c0.5083008,0.2724609,0.9975586,0.3398438,1.4677734,0.2041016   c0.4716797-0.1347656,0.9199219-0.4003906,1.3457031-0.7958984c0.4257812-0.3935547,0.8740234-0.8486328,1.3427734-1.3632812   c0.4697266-0.5136719,0.96875-1.0068359,1.4980469-1.4794922c0.5283203-0.4716797,1.0810547-0.8652344,1.6577148-1.1787109   s1.2353516-0.4658203,1.9760742-0.4580078c0.7402344,0.0087891,1.5146484,0.2294922,2.3242188,0.6630859   c1.4121094,0.7578125,2.3139648,1.9804688,2.7050781,3.6708984c0.3916016,1.6904297,0.0830078,3.4746094-0.9243164,5.3544922   c-1.0073242,1.8808594-2.2709961,3.1533203-3.7919922,3.8193359c-1.5205078,0.6660156-3.1137695,0.5527344-4.7797852-0.3398438   l2.3208008-4.3310547c1.3920898,0.6025391,2.4243164,0.2773438,3.0952148-0.9765625   c0.3144531-0.5869141,0.4072266-1.1298828,0.2753906-1.6289062c-0.1308594-0.4990234-0.434082-0.8759766-0.909668-1.1308594   c-0.4760742-0.2548828-0.9458008-0.3125-1.4086914-0.1728516s-0.9106445,0.4052734-1.3457031,0.7958984   c-0.4331055,0.390625-0.8847656,0.8427734-1.3544922,1.3564453c-0.4692383,0.5146484-0.9726562,1.0058594-1.5092773,1.4736328   s-1.0893555,0.8613281-1.6577148,1.1796875c-0.5688477,0.3183594-1.2236328,0.4726562-1.9643555,0.4638672   c-0.7402344-0.0087891-1.5073242-0.2255859-2.300293-0.6503906c-1.5551758-0.8330078-2.4902344-2.0800781-2.8056641-3.7392578   c-0.315918-1.6601562,0.0087891-3.390625,0.9736328-5.1914062s2.1533203-3.0371094,3.5654297-3.7109375   c1.4121094-0.671875,3.0117188-0.5605469,4.7978516,0.3349609l-2.3710938,4.4267578   c-0.6367188-0.2597656-1.2050781-0.3134766-1.7050781-0.1630859   C262.5784912,755.8007812,262.1922607,756.1298828,261.9202881,756.6376953z"/>
</g>
<g>
	<path class="st7" d="M135.1556244,462.1660156l-1.3305664,7.25l-4.5415039-0.8330078l3.4208984-18.6435547l7.355957,1.3496094   c2.159668,0.3964844,3.7392578,1.2626953,4.7387695,2.5996094c0.9990234,1.3359375,1.3544922,2.7919922,1.0654297,4.3671875   c-0.1982422,1.0800781-0.7197266,2.0742188-1.5625,2.9804688c-0.84375,0.90625-2.0478516,1.4355469-3.612793,1.5878906   l3.1743164,8.4335938l-5.3115234-0.9746094l-2.8657227-8.0205078L135.1556244,462.1660156z M136.6116791,454.2246094   l-0.8232422,4.4882812l2.8154297,0.5166016c0.6904297,0.1279297,1.2724609,0.0234375,1.7451172-0.3105469   s0.7705078-0.8330078,0.8925781-1.4970703c0.1210938-0.6640625,0.0175781-1.2460938-0.3115234-1.7451172   c-0.3291016-0.5-0.8305664-0.8115234-1.5029297-0.9345703L136.6116791,454.2246094z"/>
	<path class="st7" d="M158.4173431,472.0205078l-4.6166992,0.0595703l-0.2446289-18.953125l4.6162109-0.0595703l0.1074219,8.3154297   l6.15625-8.3955078l6.0478516-0.078125l-7.6796875,9.5771484l7.9243164,9.375l-5.9399414,0.0771484l-6.4790039-8.2871094   L158.4173431,472.0205078z"/>
	<path class="st7" d="M187.219101,449.7548828l0.6757812,3.4443359l-6.7294922,1.3203125l0.7841797,4l5.9355469-1.1640625   l0.675293,3.4453125l-5.9345703,1.1640625l0.847168,4.3183594l6.7294922-1.3203125l0.6757812,3.4443359l-11.2607422,2.2080078   l-3.6582031-18.6513672L187.219101,449.7548828z"/>
</g>
<g>
	<path class="st7" d="M442.8685303,285.6376953c-1.5224609-2.1347656-2.0302734-4.5839844-1.5253906-7.3461914   s1.8466797-4.8730469,4.0253906-6.3320312c2.1787109-1.4584961,4.6054688-1.9438477,7.2792969-1.4550781   c2.0712891,0.378418,3.8125,1.2641602,5.2226562,2.65625c1.4111328,1.3925781,2.2568359,3.1210938,2.5380859,5.1850586   l-5.4179688-0.9902344c-0.4589844-1.4931641-1.4677734-2.3818359-3.0253906-2.6665039   c-1.5585938-0.2851562-2.8740234-0.0219727-3.9462891,0.7880859c-1.0722656,0.8105469-1.7568359,2.0302734-2.0546875,3.6591797   c-0.2978516,1.6293945-0.0888672,3.012207,0.6279297,4.1494141c0.7158203,1.137207,1.8261719,1.84375,3.3310547,2.1186523   c1.0800781,0.1972656,2.0107422,0.0888672,2.7910156-0.3271484c0.7802734-0.4150391,1.3681641-1.0532227,1.7636719-1.9145508   l-5.2587891-0.9609375l0.6308594-3.453125l10.1464844,1.8549805l-0.6318359,3.4526367   c-0.6464844,1.6381836-1.8662109,3.0532227-3.6572266,4.2446289c-0.8564453,0.5751953-1.859375,0.9868164-3.0117188,1.2333984   c-1.1523438,0.2470703-2.3300781,0.2602539-3.5341797,0.0400391   C446.4876709,289.0854492,444.3900146,287.7734375,442.8685303,285.6376953z"/>
	<path class="st7" d="M472.571167,291.5356445l-4.6157227,0.1049805l-0.4326172-18.9487305l4.6162109-0.1054688l0.1894531,8.3139648   l6.0722656-8.4570312l6.046875-0.1376953l-7.5839844,9.6523438l8.0166016,9.296875l-5.9384766,0.1352539l-6.5615234-8.2226562   L472.571167,291.5356445z"/>
	<path class="st7" d="M501.1761475,268.9780273l0.7128906,3.4365234l-6.7148438,1.3930664l0.828125,3.9921875l5.921875-1.2285156   l0.7128906,3.4370117l-5.921875,1.2280273l0.8935547,4.3095703l6.7158203-1.3930664l0.7128906,3.4370117l-11.2363281,2.3305664   l-3.8613281-18.6118164L501.1761475,268.9780273z"/>
</g>
<g>
	<path id="surface1_1_" class="st4" d="M428.3783264,863.7418213c-1.4193115-0.02771-2.7497864,0.6887207-3.5079346,1.888855   c-0.7571716,1.208252-0.805481,2.7225952-0.1611023,3.979126l16.1099243,32.2359619   c0.9947815,1.9894409,3.414032,2.7957764,5.4034729,1.8009644c0.7194519-0.3597412,1.3146973-0.9266968,1.7090454-1.6278076   l15.1030273-26.6820068c0.0161133-0.0161133,0.0161133-0.0322266,0.0161133-0.0604248   c0,0.012085,1.9493103-3.4313965,5.5377808-3.4313965h0.0644531c0,0,1.1639404,0.0322266,2.1869202,0.5356445   c1.0229797,0.5195312,1.776123,0.7249756,1.776123,3.4918213v24.164856   c-0.0161133,1.4498901,0.7410278,2.7990723,1.9976196,3.5401611c1.2605896,0.7249146,2.7991028,0.7249146,4.0596924,0   c1.2565613-0.7410889,2.0137329-2.0942993,1.9976196-3.5401611v-22.151123   c0.0026855-3.3364868,2.7095642-6.0390625,6.046051-6.036377c3.3327026,0.0026245,6.0337219,2.7036743,6.036377,6.036377v22.151123   c-0.032196,2.1063843,1.5908813,3.8865356,3.6972351,4.0758057c0.1248474,0,0.2496948,0.0161133,0.3946838,0.0161133   c2.2151184-0.0483398,3.9952698-1.8728027,3.9630432-4.0919189v-22.151123c0-3.3364868,2.7047424-6.0411987,6.0411987-6.0411987   c3.3364868,0,6.0411987,2.7047119,6.0411987,6.0411987v22.151123c-0.0160522,1.4498901,0.7410889,2.7990723,1.9976807,3.5401611   c1.2605591,0.7249146,2.7990723,0.7249146,4.0596924,0c1.2565308-0.7410889,2.0137329-2.0942993,1.9976196-3.5401611v-22.151123   c0-7.2212524-5.6183472-13.0409546-12.6462708-13.81427c-0.4621887-0.1812134-0.9534912-0.2767334-1.4498901-0.2819214   c-3.7966919,0.008667-7.4284363,1.5528564-10.0686951,4.28125c-2.6402893-2.7283936-6.2720032-4.272583-10.0686951-4.28125   c-0.4973755,0.0105591-0.988678,0.1115723-1.4498901,0.2980347c-2.8902588,0.3300171-5.6114502,1.5325317-7.801239,3.4475708   c-0.8700562-0.9677734-1.9102478-1.7677002-3.0689392-2.3601074c-2.9843445-1.4780884-5.8035889-1.385498-5.8358154-1.385498   c-8.4778442,0.0322266-12.5536499,7.644165-12.5536499,7.644165l0.0161133-0.0604248l-11.3735962,20.1051636   l-12.7268066-25.4536133c-0.6567993-1.3681641-2.0269165-2.2509766-3.5441895-2.2835693H428.3783264z"/>
</g>
<g>
	<circle class="st4" cx="154.2571259" cy="684.3654785" r="5.7115326"/>
	<circle class="st4" cx="142.8340759" cy="695.7884521" r="5.7115402"/>
	
		<ellipse transform="matrix(0.3826829 -0.9238797 0.9238797 0.3826829 -519.4407349 568.4873047)" class="st4" cx="165.6800537" cy="672.9424438" rx="5.7115321" ry="5.7114863"/>
	
		<ellipse transform="matrix(0.9870874 -0.1601826 0.1601826 0.9870874 -109.018837 39.1830597)" class="st4" cx="188.5262451" cy="695.7885132" rx="5.7114868" ry="5.7115479"/>
	<circle class="st4" cx="177.1031952" cy="684.3654785" r="5.7115326"/>
	
		<ellipse transform="matrix(0.9870874 -0.1601826 0.1601826 0.9870874 -109.3138428 35.5235138)" class="st4" cx="165.6801605" cy="695.7885132" rx="5.7114868" ry="5.7115479"/>
	<circle class="st4" cx="154.2571259" cy="730.0575562" r="5.7115402"/>
	<circle class="st4" cx="142.8340759" cy="718.6345215" r="5.7115326"/>
	<circle class="st4" cx="154.2571259" cy="707.2115479" r="5.7115402"/>
	
		<ellipse transform="matrix(0.9870874 -0.1601826 0.1601826 0.9870874 -111.5861282 30.1817017)" class="st4" cx="131.4110413" cy="707.2116089" rx="5.7114868" ry="5.7115479"/>
	<ellipse class="st4" cx="165.68013" cy="718.6345215" rx="5.7114868" ry="5.7114868"/>
	<circle class="st4" cx="177.1031952" cy="707.2115479" r="5.7115402"/>
	<path class="st4" d="M159.9686584,661.5127563c-22.0490875,0-39.9872437,17.9382324-39.9872437,39.9872437   s17.9381561,39.9871826,39.9872437,39.9871826c22.0490265,0,39.9871826-17.9381714,39.9871826-39.9871826   S182.0176849,661.5127563,159.9686584,661.5127563z M182.4575195,728.0940552   c-0.8059235-2.1801147-2.9031525-3.7479858-5.3543243-3.7479858c-3.1413574,0-5.7115326,2.5702515-5.7115326,5.7114868   c0,1.4592896,0.5593567,2.7910156,1.4682617,3.8034058c-3.9885254,1.5903931-8.3354645,2.4741211-12.8912659,2.4741211   c-19.2388916,0-34.8350754-15.5962524-34.8350754-34.835083c0-4.5557861,0.8837051-8.902771,2.4741058-12.8912964   c1.0123825,0.9088745,2.3440475,1.4682617,3.8033218,1.4682617c3.1413422,0,5.7115326-2.5701904,5.7115326-5.7114868   c0-2.4512329-1.5678558-4.5484009-3.7479706-5.3543701c1.2524872-1.4796143,2.6255341-2.8527222,4.1051788-4.1052246   c0.8059082,2.1801147,2.9030762,3.7480469,5.3543243,3.7480469c3.1413422,0,5.7115173-2.5701904,5.7115173-5.7115479   c0-1.4592285-0.5593567-2.7909546-1.4682617-3.8033447c3.9885712-1.5903931,8.3355255-2.4741211,12.8913269-2.4741211   c19.2388306,0,34.835022,15.5961914,34.835022,34.835083c0,4.5557861-0.8837128,8.902771-2.4741058,12.8912354   c-1.0123749-0.9088745-2.3440552-1.4682007-3.8033295-1.4682007c-3.1413422,0-5.7115326,2.5701904-5.7115326,5.7114868   c0,2.4511719,1.5679169,4.5484009,3.7479858,5.3543091C185.3101959,725.4685059,183.9371643,726.8415527,182.4575195,728.0940552z"/>
</g>
<g>
	<path class="st4" d="M411.5846863,786.5584717c-2.5361328-0.6904297-4.4863281-2.2636719-5.8505859-4.7177734   c-1.3642578-2.4550781-1.6679688-4.9365234-0.9121094-7.4472656c0.7568359-2.5107422,2.3261719-4.4296875,4.7099609-5.7539062   c2.3837891-1.3251953,4.8330078-1.6416016,7.3496094-0.9501953s4.4560547,2.2646484,5.8203125,4.7197266   c1.3642578,2.453125,1.6748047,4.9375,0.9306641,7.4521484c-0.7451172,2.5146484-2.3046875,4.4316406-4.6796875,5.7519531   C416.5758972,786.9344482,414.1208191,787.2489014,411.5846863,786.5584717z M419.3317566,778.8221436   c0.3144531-1.3066406,0.0683594-2.6835938-0.7363281-4.1308594s-1.8447266-2.3828125-3.1201172-2.8066406   s-2.578125-0.2666016-3.9072266,0.4726562s-2.1503906,1.7626953-2.4648438,3.0693359   c-0.3125,1.3066406-0.0673828,2.6835938,0.7373047,4.1308594c0.8046875,1.4482422,1.8447266,2.3837891,3.1201172,2.8066406   c1.2753906,0.4248047,2.578125,0.265625,3.9072266-0.4726562S419.0192566,780.1297607,419.3317566,778.8221436z"/>
	<path class="st4" d="M435.5075378,757.836792l4.3818359-1.4550781l5.9912109,18.0390625l-4.3818359,1.4560547   l-11.0986328-8.9179688l3.7705078,11.3515625l-4.3818359,1.4550781l-5.9912109-18.0390625l4.3818359-1.4550781   l11.0986328,8.9169922L435.5075378,757.836792z"/>
	<path class="st4" d="M448.5524597,766.2420654l-0.5878906-3.7880859l11.7402344-1.8193359l0.5869141,3.7880859   L448.5524597,766.2420654z"/>
	<path class="st4" d="M479.9704285,758.3387451c0.0029297,1.2783203-0.453125,2.5117188-1.3671875,3.7021484   c-0.484375,0.6142578-1.2080078,1.1152344-2.1699219,1.5048828s-2.1005859,0.5859375-3.4140625,0.5888672l-2.8613281,0.0068359   l0.0175781,7.3710938l-4.6162109,0.0117188l-0.0488281-18.953125l7.4794922-0.0195312   c2.1953125-0.0058594,3.90625,0.5566406,5.1337891,1.6875S479.9665222,756.7371826,479.9704285,758.3387451z    M470.1481628,760.6317139l2.8623047-0.0068359c0.7021484-0.0019531,1.2548828-0.2099609,1.6591797-0.625   c0.4033203-0.4150391,0.6044922-0.9609375,0.6025391-1.6357422s-0.2099609-1.2275391-0.625-1.6582031   c-0.4150391-0.4316406-0.9648438-0.6464844-1.6484375-0.6445312l-2.8623047,0.0078125L470.1481628,760.6317139z"/>
	<path class="st4" d="M488.5583191,765.2186279l-1.1503906,7.2802734l-4.5605469-0.7207031l2.9589844-18.7207031   l7.3876953,1.1679688c2.1689453,0.3417969,3.7695312,1.1689453,4.8017578,2.4804688   c1.03125,1.3115234,1.4228516,2.7587891,1.1728516,4.3408203c-0.171875,1.0849609-0.6679688,2.0908203-1.4882812,3.0175781   c-0.8212891,0.9267578-2.0126953,1.4853516-3.5732422,1.6767578l3.3808594,8.3515625l-5.3330078-0.8427734l-3.0634766-7.9462891   L488.5583191,765.2186279z M489.8190613,757.2449951l-0.7119141,4.5068359l2.8261719,0.4472656   c0.6943359,0.109375,1.2724609-0.0087891,1.7373047-0.3544922s0.75-0.8515625,0.8554688-1.5185547   s-0.0126953-1.2451172-0.3544922-1.7373047c-0.3417969-0.4912109-0.8496094-0.7900391-1.5253906-0.8964844L489.8190613,757.2449951   z"/>
	<path class="st4" d="M517.4879761,760.4168701l-1.0664062,3.34375l-6.5331726-2.0830078l-1.2392578,3.8837891l5.7626648,1.8369141   l-1.0673828,3.3447266l-5.7616882-1.8378906l-1.3369141,4.1933594l6.5331726,2.0839844l-1.0663757,3.34375l-10.9316406-3.4863281   l5.7744141-18.109375L517.4879761,760.4168701z"/>
	<path class="st4" d="M543.1383667,772.9197998l-8.9199219,16.7236328l-4.0732422-2.1728516l5.03125-9.4345703l-8.9150391,7.3632812   l-3.0253906-1.6132812l1.1484375-11.5058594l-5.03125,9.4345703l-4.0742188-2.1728516l8.9199219-16.7246094l4.6699219,2.4912109   l-1.3378906,14.0966797l10.9384766-8.9765625L543.1383667,772.9197998z"/>
</g>
</svg>